<svg width="139" height="50" viewBox="0 0 139 50" fill="none" xmlns="http://www.w3.org/2000/svg">
<g clip-path="url(#clip0_423_10880)">
<path d="M132.59 0.625H5.77933C3.37614 0.625 1.42798 2.58375 1.42798 5V45C1.42798 47.4162 3.37614 49.375 5.77933 49.375H132.59C134.993 49.375 136.941 47.4162 136.941 45V5C136.941 2.58375 134.993 0.625 132.59 0.625Z" fill="black"/>
<path d="M13.0637 12.2619C12.7837 12.5612 12.6177 13.0258 12.6177 13.6275V35.1232C12.6177 35.7258 12.7837 36.1895 13.0637 36.4888L13.1351 36.5588L25.0964 24.5172V24.3753V24.2325L13.1351 12.1909L13.0637 12.2619Z" fill="url(#paint0_linear_423_10880)"/>
<path d="M25.0964 24.2324V24.3753V24.5173L29.0825 28.5334L29.1733 28.4818L33.897 25.7798C35.2457 25.0071 35.2457 23.7435 33.897 22.9728L29.1733 20.2698L29.0835 20.2183L25.0964 24.2324Z" fill="url(#paint1_linear_423_10880)"/>
<path d="M13.0637 36.489C13.5087 36.9622 14.2434 37.0216 15.0707 36.5492L29.1732 28.481L25.0964 24.3755L13.0637 36.489Z" fill="url(#paint2_linear_423_10880)"/>
<path d="M13.0637 12.2621L25.0964 24.3756L29.1732 20.2701L15.0707 12.2028C14.6827 11.9802 14.3149 11.8752 13.9885 11.8752C13.6179 11.8752 13.3002 12.0103 13.0637 12.2621Z" fill="url(#paint3_linear_423_10880)"/>
<g opacity="0.199997">
<g opacity="0.199997">
<path opacity="0.199997" d="M29.0832 28.3904L15.0706 36.4061C14.2866 36.8551 13.5858 36.825 13.1358 36.4168L13.0645 36.4898L13.1358 36.5596C13.5858 36.9678 14.2866 36.997 15.0706 36.548L29.1731 28.4808L29.0832 28.3904Z" fill="black"/>
</g>
</g>
<g opacity="0.119995">
<g opacity="0.119995">
<path opacity="0.119995" d="M13.0642 36.3473C12.7832 36.0479 12.6172 35.5833 12.6172 34.9817V35.1236C12.6172 35.7252 12.7832 36.1898 13.0642 36.4892L13.1366 36.4173L13.0642 36.3473Z" fill="black"/>
</g>
</g>
<g opacity="0.119995">
<g opacity="0.119995">
<path opacity="0.119995" d="M33.8967 25.6368L29.0833 28.3905L29.173 28.4808L33.8967 25.7787C34.5715 25.3928 34.9085 24.8846 34.9085 24.3762C34.8515 24.836 34.5088 25.287 33.8967 25.6368Z" fill="black"/>
</g>
</g>
<g opacity="0.25">
<g opacity="0.25">
<path opacity="0.25" d="M15.0705 12.3449L33.8966 23.1141C34.5087 23.464 34.8524 23.915 34.9084 24.3757C34.9094 23.8674 34.5714 23.3581 33.8966 22.9722L15.0705 12.203C13.7209 11.4312 12.6174 12.0717 12.6174 13.6279V13.7697C12.6174 12.2146 13.7209 11.5731 15.0705 12.3449Z" fill="white"/>
</g>
</g>
<path d="M49.5113 14.9421C49.5113 15.9732 49.2322 16.7622 48.6742 17.3091C48.1189 17.8531 47.3186 18.1251 46.2733 18.1251H44.5522V11.8788H46.456C47.422 11.8788 48.1727 12.1479 48.7082 12.6862C49.2436 13.2246 49.5113 13.9766 49.5113 14.9421ZM48.7465 14.9677C48.7465 14.1531 48.5424 13.5394 48.1345 13.1264C47.7294 12.7134 47.126 12.5069 46.3242 12.5069H45.2747V17.4971H46.1543C47.0155 17.4971 47.6628 17.2849 48.0962 16.8605C48.5296 16.4332 48.7465 15.8024 48.7465 14.9677ZM51.5 18.1251H50.7946V13.4425H51.5V18.1251ZM50.7351 12.1736C50.7351 12.0112 50.7748 11.893 50.8541 11.819C50.9334 11.7421 51.0325 11.7036 51.1515 11.7036C51.2649 11.7036 51.3626 11.7421 51.4448 11.819C51.527 11.8959 51.568 12.0141 51.568 12.1736C51.568 12.3331 51.527 12.4527 51.4448 12.5325C51.3626 12.6094 51.2649 12.6479 51.1515 12.6479C51.0325 12.6479 50.9334 12.6094 50.8541 12.5325C50.7748 12.4527 50.7351 12.3331 50.7351 12.1736ZM56 16.8476C56 17.2835 55.8387 17.6195 55.5157 17.856C55.1927 18.0924 54.7394 18.2106 54.1558 18.2106C53.5383 18.2106 53.0567 18.1122 52.711 17.9157V17.2579C52.9348 17.3717 53.1743 17.4615 53.4293 17.527C53.687 17.5925 53.9349 17.6252 54.1728 17.6252C54.5411 17.6252 54.8244 17.5669 55.0227 17.4501C55.221 17.3305 55.3202 17.1496 55.3202 16.9075C55.3202 16.7251 55.2409 16.57 55.0823 16.4417C54.9264 16.3107 54.6204 16.157 54.1644 15.9804C53.7309 15.818 53.4222 15.677 53.238 15.5574C53.0567 15.4349 52.9206 15.2967 52.83 15.143C52.7422 14.9891 52.6983 14.8054 52.6983 14.5917C52.6983 14.2101 52.8528 13.9096 53.1615 13.6902C53.4703 13.4681 53.8939 13.357 54.4321 13.357C54.9335 13.357 55.4235 13.4596 55.9023 13.6646L55.6517 14.2415C55.1842 14.0477 54.7606 13.9509 54.3811 13.9509C54.0468 13.9509 53.7946 14.0036 53.6247 14.109C53.4547 14.2144 53.3697 14.3596 53.3697 14.5447C53.3697 14.6701 53.4009 14.777 53.4632 14.8652C53.5283 14.9535 53.6318 15.0375 53.7734 15.1174C53.9151 15.1971 54.187 15.3124 54.5893 15.4634C55.1417 15.6656 55.5142 15.8692 55.7069 16.0744C55.9023 16.2794 56 16.5372 56 16.8476ZM59.3189 18.2106C59.0158 18.2106 58.738 18.155 58.4859 18.044C58.2366 17.93 58.027 17.7562 57.8571 17.5227H57.8061C57.84 17.7961 57.8571 18.0554 57.8571 18.3002V20.2271H57.1516V13.4425H57.7253L57.823 14.0834H57.8571C58.0383 13.827 58.2494 13.6419 58.4902 13.528C58.7309 13.414 59.0072 13.357 59.3189 13.357C59.9364 13.357 60.4123 13.5692 60.7466 13.9936C61.0838 14.418 61.2522 15.0134 61.2522 15.7795C61.2522 16.5486 61.0809 17.1467 60.7382 17.574C60.3981 17.9984 59.9251 18.2106 59.3189 18.2106ZM59.2168 13.9595C58.7409 13.9595 58.3968 14.0919 58.1843 14.3569C57.9718 14.6217 57.8627 15.0432 57.8571 15.6215V15.7795C57.8571 16.4375 57.9661 16.9089 58.1843 17.1937C58.4023 17.4757 58.7522 17.6167 59.2338 17.6167C59.6361 17.6167 59.9506 17.4529 60.1772 17.1254C60.4067 16.7979 60.5215 16.3464 60.5215 15.771C60.5215 15.1871 60.4067 14.7399 60.1772 14.4295C59.9506 14.1161 59.6304 13.9595 59.2168 13.9595ZM66.5088 15.7795C66.5088 16.5429 66.3176 17.1396 65.935 17.5697C65.5526 17.997 65.0244 18.2106 64.35 18.2106C63.9337 18.2106 63.5639 18.1122 63.241 17.9157C62.9181 17.7192 62.6688 17.4372 62.4931 17.0699C62.3174 16.7024 62.2297 16.2722 62.2297 15.7795C62.2297 15.0162 62.4194 14.4224 62.7991 13.9979C63.1786 13.5706 63.7057 13.357 64.3799 13.357C65.0314 13.357 65.5484 13.575 65.9308 14.0107C66.3161 14.4465 66.5088 15.0361 66.5088 15.7795ZM62.9606 15.7795C62.9606 16.3777 63.0796 16.8334 63.3175 17.1467C63.5555 17.46 63.9053 17.6167 64.3671 17.6167C64.8288 17.6167 65.1786 17.4615 65.4167 17.151C65.6574 16.8377 65.7779 16.3805 65.7779 15.7795C65.7779 15.1842 65.6574 14.7327 65.4167 14.4251C65.1786 14.1147 64.8261 13.9595 64.3586 13.9595C63.8969 13.9595 63.5484 14.1119 63.3133 14.4166C63.0781 14.7214 62.9606 15.1757 62.9606 15.7795ZM70.9366 18.1251V15.096C70.9366 14.7142 70.8502 14.4295 70.6774 14.2415C70.5046 14.0535 70.234 13.9595 69.8658 13.9595C69.3784 13.9595 69.0215 14.0919 68.7949 14.3569C68.5682 14.6217 68.455 15.0589 68.455 15.6685V18.1251H67.7495V13.4425H68.3232L68.4379 14.0834H68.472C68.6165 13.8526 68.819 13.6746 69.0796 13.5494C69.3403 13.4211 69.6306 13.357 69.9507 13.357C70.5117 13.357 70.9337 13.4937 71.2171 13.7672C71.5003 14.0377 71.642 14.4721 71.642 15.0704V18.1251H70.9366ZM73.8007 18.1251H73.0952V13.4425H73.8007V18.1251ZM73.0655 12.7162C73.2015 12.5396 73.3474 12.326 73.5032 12.0753C73.6619 11.8247 73.7865 11.6068 73.8771 11.4216H74.7356V11.5113C74.6109 11.6965 74.4253 11.9244 74.1789 12.1949C73.9324 12.4655 73.7185 12.6749 73.5372 12.823H73.0655V12.7162ZM76.3162 18.1251L74.5486 13.4425H75.305L76.3078 16.2196C76.5344 16.869 76.6676 17.2906 76.7072 17.4842H76.7412C76.7724 17.3332 76.8701 17.0214 77.0345 16.5486C77.2016 16.0729 77.5742 15.0375 78.152 13.4425H78.9084L77.1406 18.1251H76.3162ZM81.6238 18.2106C80.9354 18.2106 80.3915 17.9997 79.992 17.5782C79.5954 17.1567 79.3971 16.5714 79.3971 15.8222C79.3971 15.0675 79.5812 14.4679 79.9495 14.0236C80.3206 13.5792 80.8178 13.357 81.441 13.357C82.0246 13.357 82.4863 13.5507 82.8264 13.9381C83.1663 14.3226 83.3362 14.831 83.3362 15.4634V15.912H80.128C80.1422 16.4617 80.2796 16.879 80.5402 17.1639C80.8036 17.4486 81.1733 17.5911 81.6493 17.5911C82.1507 17.5911 82.6465 17.4856 83.1365 17.2749V17.9072C82.8873 18.0155 82.6507 18.0924 82.4269 18.138C82.2059 18.1864 81.9382 18.2106 81.6238 18.2106ZM81.4326 13.9509C81.0586 13.9509 80.7597 14.0734 80.5359 14.3184C80.315 14.5634 80.1846 14.9022 80.1449 15.3352H82.5798C82.5798 14.888 82.4807 14.5462 82.2824 14.3099C82.0841 14.0705 81.8008 13.9509 81.4326 13.9509ZM85.2484 18.1251H84.543V11.4772H85.2484V18.1251ZM92.192 18.1251V15.096C92.192 14.7142 92.1056 14.4295 91.9327 14.2415C91.7599 14.0535 91.4894 13.9595 91.121 13.9595C90.6338 13.9595 90.2769 14.0919 90.0502 14.3569C89.8236 14.6217 89.7103 15.0589 89.7103 15.6685V18.1251H89.0049V13.4425H89.5785L89.6933 14.0834H89.7274C89.8718 13.8526 90.0743 13.6746 90.3349 13.5494C90.5956 13.4211 90.8859 13.357 91.2061 13.357C91.767 13.357 92.1891 13.4937 92.4724 13.7672C92.7556 14.0377 92.8974 14.4721 92.8974 15.0704V18.1251H92.192ZM97.2147 18.1251L97.0744 17.4586H97.0405C96.8081 17.752 96.5759 17.9514 96.3435 18.0567C96.1141 18.1592 95.8266 18.2106 95.481 18.2106C95.0192 18.2106 94.6566 18.091 94.3931 17.8516C94.1324 17.6124 94.0021 17.272 94.0021 16.8306C94.0021 15.8849 94.7543 15.3894 96.2586 15.3437L97.0489 15.3181V15.0276C97.0489 14.6601 96.9696 14.3896 96.811 14.2159C96.6552 14.0392 96.4044 13.9509 96.0588 13.9509C95.6708 13.9509 95.2317 14.0705 94.7416 14.3099L94.5248 13.7672C94.7543 13.6419 95.005 13.5436 95.2769 13.4724C95.5517 13.4012 95.8266 13.3656 96.1013 13.3656C96.6566 13.3656 97.0673 13.4895 97.3336 13.7372C97.6028 13.9851 97.7373 14.3825 97.7373 14.9294V18.1251H97.2147ZM95.6212 17.6252C96.0603 17.6252 96.4044 17.5042 96.6537 17.2621C96.9058 17.02 97.0319 16.681 97.0319 16.2452V15.8222L96.3266 15.8521C95.7657 15.8721 95.3605 15.9604 95.1112 16.1171C94.8648 16.2709 94.7416 16.5115 94.7416 16.8391C94.7416 17.0955 94.8181 17.2906 94.971 17.4245C95.1269 17.5582 95.3436 17.6252 95.6212 17.6252Z" fill="white"/>
<path d="M49.3947 31.0596H53.3722V36.4355C52.8136 36.6211 52.2357 36.7651 51.6383 36.8676C51.0411 36.9703 50.3709 37.0215 49.6278 37.0215C48.5449 37.0215 47.627 36.8066 46.8742 36.377C46.1263 35.9424 45.5581 35.315 45.1696 34.4946C44.7811 33.6694 44.5869 32.6758 44.5869 31.5136C44.5869 30.3955 44.803 29.4263 45.2351 28.606C45.6674 27.7808 46.2964 27.1435 47.1219 26.6944C47.9475 26.2403 48.948 26.0131 50.1232 26.0131C50.7011 26.0131 51.2595 26.0718 51.7986 26.189C52.3425 26.3013 52.8403 26.4575 53.292 26.6578L52.6801 28.1079C52.3208 27.937 51.9176 27.793 51.4709 27.6758C51.0241 27.5586 50.5602 27.5 50.0794 27.5C49.317 27.5 48.6589 27.666 48.1053 27.998C47.5565 28.3301 47.1341 28.7989 46.8378 29.4043C46.5415 30.0049 46.3935 30.7154 46.3935 31.5356C46.3935 32.3315 46.5124 33.0298 46.7504 33.6304C46.9884 34.231 47.3598 34.6998 47.865 35.0366C48.3748 35.3686 49.0329 35.5346 49.8391 35.5346C50.2422 35.5346 50.5846 35.5128 50.8662 35.4688C51.1479 35.4248 51.4077 35.376 51.6457 35.3223V32.561H49.3947V31.0596ZM62.8858 32.8028C62.8858 33.4765 62.7984 34.0748 62.6236 34.5971C62.4487 35.1196 62.1938 35.5615 61.8587 35.9229C61.5236 36.2793 61.1206 36.5528 60.6495 36.7431C60.1784 36.9288 59.6466 37.0215 59.0542 37.0215C58.5005 37.0215 57.9931 36.9288 57.5317 36.7431C57.0703 36.5528 56.6696 36.2793 56.3297 35.9229C55.9945 35.5615 55.7348 35.1196 55.5502 34.5971C55.3657 34.0748 55.2735 33.4765 55.2735 32.8028C55.2735 31.9091 55.4264 31.1524 55.7323 30.5323C56.0431 29.9073 56.4851 29.4311 57.0581 29.104C57.6311 28.7769 58.3136 28.6133 59.1051 28.6133C59.8481 28.6133 60.5038 28.7769 61.0719 29.104C61.6402 29.4311 62.0846 29.9073 62.4051 30.5323C62.7256 31.1573 62.8858 31.914 62.8858 32.8028ZM57.0363 32.8028C57.0363 33.3935 57.1067 33.8989 57.2476 34.3189C57.3932 34.7388 57.6166 35.061 57.9177 35.2856C58.2188 35.5054 58.6073 35.6153 59.0833 35.6153C59.5592 35.6153 59.9477 35.5054 60.2488 35.2856C60.5499 35.061 60.7708 34.7388 60.9117 34.3189C61.0525 33.8989 61.1229 33.3935 61.1229 32.8028C61.1229 32.2119 61.0525 31.7114 60.9117 31.3013C60.7708 30.8863 60.5499 30.5713 60.2488 30.3565C59.9477 30.1368 59.5568 30.0269 59.076 30.0269C58.3669 30.0269 57.8497 30.2661 57.5244 30.7446C57.199 31.2231 57.0363 31.9091 57.0363 32.8028ZM71.9916 32.8028C71.9916 33.4765 71.9042 34.0748 71.7294 34.5971C71.5546 35.1196 71.2996 35.5615 70.9646 35.9229C70.6294 36.2793 70.2263 36.5528 69.7553 36.7431C69.2842 36.9288 68.7525 37.0215 68.1599 37.0215C67.6063 37.0215 67.0988 36.9288 66.6374 36.7431C66.1761 36.5528 65.7754 36.2793 65.4355 35.9229C65.1004 35.5615 64.8406 35.1196 64.656 34.5971C64.4715 34.0748 64.3792 33.4765 64.3792 32.8028C64.3792 31.9091 64.5321 31.1524 64.8381 30.5323C65.1489 29.9073 65.5909 29.4311 66.1639 29.104C66.737 28.7769 67.4193 28.6133 68.2109 28.6133C68.954 28.6133 69.6095 28.7769 70.1777 29.104C70.746 29.4311 71.1903 29.9073 71.5108 30.5323C71.8313 31.1573 71.9916 31.914 71.9916 32.8028ZM66.142 32.8028C66.142 33.3935 66.2125 33.8989 66.3534 34.3189C66.4991 34.7388 66.7224 35.061 67.0235 35.2856C67.3246 35.5054 67.7131 35.6153 68.189 35.6153C68.6649 35.6153 69.0534 35.5054 69.3546 35.2856C69.6557 35.061 69.8767 34.7388 70.0175 34.3189C70.1583 33.8989 70.2288 33.3935 70.2288 32.8028C70.2288 32.2119 70.1583 31.7114 70.0175 31.3013C69.8767 30.8863 69.6557 30.5713 69.3546 30.3565C69.0534 30.1368 68.6626 30.0269 68.1818 30.0269C67.4728 30.0269 66.9555 30.2661 66.6301 30.7446C66.3048 31.2231 66.142 31.9091 66.142 32.8028ZM76.2604 40.4785C75.1677 40.4785 74.33 40.2808 73.7472 39.8853C73.1645 39.4898 72.8731 38.9355 72.8731 38.2226C72.8731 37.7246 73.0285 37.3023 73.3393 36.9556C73.6501 36.6138 74.0944 36.377 74.6724 36.2451C74.4538 36.1475 74.2645 35.9961 74.1041 35.791C73.9487 35.581 73.871 35.3491 73.871 35.0953C73.871 34.7925 73.956 34.5338 74.126 34.3189C74.296 34.104 74.5509 33.8965 74.891 33.6963C74.4684 33.5156 74.1285 33.2226 73.871 32.8174C73.6185 32.4073 73.4923 31.9263 73.4923 31.3745C73.4923 30.7886 73.6161 30.2905 73.8638 29.8804C74.1115 29.4654 74.4732 29.1504 74.9491 28.9355C75.4251 28.7159 76.0006 28.606 76.6756 28.606C76.8214 28.606 76.9791 28.6158 77.1492 28.6353C77.324 28.6499 77.4842 28.6694 77.63 28.6939C77.7805 28.7134 77.8946 28.7354 77.9723 28.7598H80.7623V29.7193L79.3929 29.9756C79.5239 30.1611 79.6283 30.3735 79.706 30.6128C79.7838 30.8471 79.8227 31.1035 79.8227 31.3819C79.8227 32.2216 79.5336 32.8833 78.9558 33.3668C78.3827 33.8453 77.591 34.0845 76.5809 34.0845C76.3381 34.0748 76.1026 34.0551 75.8744 34.0259C75.6994 34.1333 75.5659 34.2529 75.4737 34.3848C75.3814 34.5118 75.3353 34.6558 75.3353 34.8169C75.3353 34.9488 75.3814 35.0561 75.4737 35.1391C75.5659 35.2173 75.7019 35.2759 75.8816 35.315C76.0662 35.354 76.2896 35.3735 76.5518 35.3735H77.9431C78.8271 35.3735 79.502 35.5615 79.9682 35.9375C80.4345 36.3135 80.6676 36.8653 80.6676 37.5928C80.6676 38.5156 80.2889 39.2261 79.5312 39.7241C78.7736 40.227 77.6834 40.4785 76.2604 40.4785ZM76.326 39.27C76.9233 39.27 77.4259 39.2114 77.8338 39.0943C78.2419 38.977 78.5502 38.8086 78.7591 38.5889C78.9679 38.374 79.0722 38.1176 79.0722 37.8199C79.0722 37.5561 79.0067 37.3535 78.8756 37.2119C78.7445 37.0703 78.5478 36.9726 78.2855 36.919C78.0233 36.8653 77.698 36.8384 77.3094 36.8384H76.0418C75.7262 36.8384 75.4469 36.8873 75.2041 36.9849C74.9613 37.0874 74.772 37.2339 74.636 37.4244C74.5048 37.6148 74.4393 37.8443 74.4393 38.1128C74.4393 38.4839 74.6019 38.7695 74.9274 38.9698C75.2576 39.1699 75.7238 39.27 76.326 39.27ZM76.6611 32.9565C77.1613 32.9565 77.5329 32.8199 77.7757 32.5464C78.0185 32.2681 78.1398 31.8775 78.1398 31.3745C78.1398 30.8276 78.0136 30.4175 77.7611 30.144C77.5133 29.8706 77.1443 29.7339 76.6538 29.7339C76.173 29.7339 75.8064 29.873 75.5539 30.1514C75.3061 30.4298 75.1823 30.8423 75.1823 31.3891C75.1823 31.8824 75.3061 32.2681 75.5539 32.5464C75.8064 32.8199 76.1755 32.9565 76.6611 32.9565ZM83.953 36.875H82.2338V25.4785H83.953V36.875ZM89.6132 28.6133C90.3319 28.6133 90.9487 28.7623 91.4634 29.06C91.9782 29.3579 92.3741 29.7803 92.6508 30.3271C92.9277 30.874 93.0661 31.5284 93.0661 32.29V33.2129H87.6827C87.7021 33.999 87.911 34.6045 88.3092 35.0293C88.7122 35.4541 89.2757 35.6665 89.9992 35.6665C90.5141 35.6665 90.9754 35.6176 91.3833 35.52C91.7961 35.4175 92.221 35.2685 92.6582 35.0733V36.4721C92.2551 36.6626 91.8447 36.8018 91.427 36.8896C91.0094 36.9775 90.5092 37.0215 89.9264 37.0215C89.1348 37.0215 88.4378 36.8676 87.8357 36.56C87.2384 36.2475 86.7697 35.7838 86.4298 35.1685C86.0947 34.5533 85.9271 33.789 85.9271 32.876C85.9271 31.9678 86.0802 31.1963 86.3861 30.5615C86.692 29.9268 87.1217 29.4434 87.6755 29.1114C88.2291 28.7793 88.875 28.6133 89.6132 28.6133ZM89.6132 29.9096C89.0741 29.9096 88.637 30.0855 88.302 30.437C87.9716 30.7886 87.7774 31.3038 87.7191 31.9824H91.3905C91.3857 31.5771 91.3177 31.2183 91.1867 30.9058C91.0603 30.5933 90.8661 30.3491 90.6038 30.1734C90.3465 29.9975 90.0163 29.9096 89.6132 29.9096ZM102.143 26.167C103.517 26.167 104.52 26.4503 105.151 27.0166C105.783 27.583 106.098 28.3765 106.098 29.397C106.098 29.8609 106.025 30.3028 105.88 30.7226C105.739 31.1378 105.506 31.5064 105.18 31.8286C104.855 32.146 104.425 32.3975 103.891 32.583C103.362 32.7685 102.709 32.8614 101.932 32.8614H100.795V36.875H99.0467V26.167H102.143ZM102.026 27.6245H100.795V31.3965H101.749C102.298 31.3965 102.764 31.333 103.148 31.206C103.532 31.0743 103.823 30.8668 104.022 30.5835C104.221 30.3003 104.321 29.9268 104.321 29.4629C104.321 28.8428 104.134 28.3814 103.76 28.0786C103.391 27.7759 102.813 27.6245 102.026 27.6245ZM109.77 36.875H108.051V25.4785H109.77V36.875ZM115.379 28.6133C116.399 28.6133 117.168 28.8404 117.688 29.2944C118.213 29.7485 118.475 30.4565 118.475 31.4185V36.875H117.258L116.93 35.7251H116.872C116.644 36.0181 116.408 36.2598 116.166 36.4503C115.923 36.6406 115.641 36.7823 115.321 36.875C115.005 36.9726 114.619 37.0215 114.162 37.0215C113.682 37.0215 113.252 36.9336 112.873 36.7578C112.494 36.5771 112.195 36.3038 111.977 35.9375C111.758 35.5713 111.649 35.1074 111.649 34.5459C111.649 33.711 111.958 33.0835 112.574 32.6636C113.196 32.2436 114.133 32.0118 115.386 31.9678L116.785 31.9165V31.4918C116.785 30.9301 116.654 30.5298 116.391 30.2905C116.134 30.0513 115.77 29.9316 115.299 29.9316C114.896 29.9316 114.505 29.9903 114.126 30.1074C113.747 30.2246 113.378 30.3686 113.019 30.5395L112.465 29.3238C112.858 29.1138 113.305 28.9429 113.805 28.811C114.31 28.6793 114.835 28.6133 115.379 28.6133ZM116.778 33.0005L115.736 33.0371C114.881 33.0664 114.281 33.2129 113.937 33.4765C113.592 33.7403 113.419 34.1015 113.419 34.5605C113.419 34.961 113.538 35.2539 113.776 35.4395C114.014 35.6201 114.328 35.7105 114.716 35.7105C115.308 35.7105 115.799 35.542 116.188 35.2051C116.581 34.8633 116.778 34.3628 116.778 33.7036V33.0005ZM119.655 28.7671H121.52L123.173 33.396C123.246 33.606 123.312 33.8135 123.37 34.0185C123.433 34.2188 123.487 34.4165 123.53 34.6119C123.579 34.8071 123.618 35.0025 123.647 35.1978H123.691C123.739 34.9439 123.807 34.6606 123.895 34.3481C123.987 34.0308 124.089 33.7134 124.201 33.396L125.789 28.7671H127.632L124.171 37.9883C123.972 38.5156 123.727 38.9649 123.436 39.336C123.149 39.7119 122.809 39.9951 122.416 40.1855C122.022 40.3809 121.573 40.4785 121.068 40.4785C120.825 40.4785 120.614 40.4639 120.434 40.4346C120.255 40.4101 120.102 40.3833 119.975 40.354V38.977C120.078 39.0015 120.206 39.0235 120.362 39.043C120.517 39.0625 120.677 39.0723 120.842 39.0723C121.148 39.0723 121.413 39.0113 121.636 38.8891C121.86 38.7671 122.049 38.5938 122.205 38.3691C122.36 38.1494 122.489 37.898 122.591 37.6148L122.875 36.853L119.655 28.7671Z" fill="white"/>
<path d="M132.59 0.625H5.77933C3.37614 0.625 1.42798 2.58375 1.42798 5V45C1.42798 47.4162 3.37614 49.375 5.77933 49.375H132.59C134.993 49.375 136.941 47.4162 136.941 45V5C136.941 2.58375 134.993 0.625 132.59 0.625Z" stroke="#909090"/>
</g>
<defs>
<linearGradient id="paint0_linear_423_10880" x1="24.0351" y1="13.4007" x2="7.72376" y2="29.6019" gradientUnits="userSpaceOnUse">
<stop stop-color="#00A0FF"/>
<stop offset="0.00657445" stop-color="#00A1FF"/>
<stop offset="0.2601" stop-color="#00BEFF"/>
<stop offset="0.5122" stop-color="#00D2FF"/>
<stop offset="0.7604" stop-color="#00DFFF"/>
<stop offset="1" stop-color="#00E3FF"/>
</linearGradient>
<linearGradient id="paint1_linear_423_10880" x1="35.6534" y1="24.3758" x2="12.2939" y2="24.3758" gradientUnits="userSpaceOnUse">
<stop stop-color="#FFE000"/>
<stop offset="0.4087" stop-color="#FFBD00"/>
<stop offset="0.7754" stop-color="#FFA500"/>
<stop offset="1" stop-color="#FF9C00"/>
</linearGradient>
<linearGradient id="paint2_linear_423_10880" x1="26.9576" y1="26.6062" x2="4.83809" y2="48.5763" gradientUnits="userSpaceOnUse">
<stop stop-color="#FF3A44"/>
<stop offset="1" stop-color="#C31162"/>
</linearGradient>
<linearGradient id="paint3_linear_423_10880" x1="10.0346" y1="5.10673" x2="19.9119" y2="14.9173" gradientUnits="userSpaceOnUse">
<stop stop-color="#32A071"/>
<stop offset="0.0685" stop-color="#2DA771"/>
<stop offset="0.4762" stop-color="#15CF74"/>
<stop offset="0.8009" stop-color="#06E775"/>
<stop offset="1" stop-color="#00F076"/>
</linearGradient>
<clipPath id="clip0_423_10880">
<rect width="138" height="50" fill="white" transform="translate(0.687988)"/>
</clipPath>
</defs>
</svg>
