<svg width="139" height="50" viewBox="0 0 139 50" fill="none" xmlns="http://www.w3.org/2000/svg">
<g clip-path="url(#clip0_423_10869)">
<path d="M132.59 0.625H5.77933C3.37614 0.625 1.42798 2.58375 1.42798 5V45C1.42798 47.4162 3.37614 49.375 5.77933 49.375H132.59C134.993 49.375 136.941 47.4162 136.941 45V5C136.941 2.58375 134.993 0.625 132.59 0.625Z" fill="black"/>
<mask id="mask0_423_10869" style="mask-type:luminance" maskUnits="userSpaceOnUse" x="18" y="11" width="26" height="26">
<path d="M43.0765 11.875H18.2117V36.875H43.0765V11.875Z" fill="white"/>
</mask>
<g mask="url(#mask0_423_10869)">
<path d="M35.5889 11.8875C35.5361 11.8281 33.6324 11.9109 31.9758 13.7187C30.3192 15.525 30.5741 17.5969 30.6113 17.65C30.6486 17.7031 32.9735 17.786 34.4576 15.6844C35.9418 13.5829 35.6418 11.9484 35.5889 11.8875ZM40.7391 30.2204C40.6645 30.0704 37.1259 28.2922 37.4554 24.8735C37.7849 21.4531 40.0584 20.5156 40.0942 20.4141C40.1299 20.3125 39.1664 19.1797 38.1454 18.6062C37.3957 18.202 36.566 17.9704 35.7164 17.9281C35.5485 17.9235 34.9658 17.7797 33.7676 18.1094C32.9781 18.3266 31.1988 19.0297 30.7092 19.0579C30.2181 19.086 28.7573 18.2422 27.1862 18.0187C26.1807 17.8235 25.1146 18.2235 24.3516 18.5312C23.5901 18.8375 22.1418 19.7094 21.1285 22.0266C20.1153 24.3422 20.6451 28.011 21.0243 29.1516C21.4035 30.2906 21.9957 32.1579 23.0027 33.5204C23.8978 35.0579 25.0851 36.125 25.5808 36.4875C26.0766 36.85 27.4753 37.0906 28.445 36.5922C29.2251 36.111 30.6331 35.8344 31.1895 35.8547C31.7442 35.875 32.8382 36.0954 33.9588 36.6969C34.8461 37.0047 35.6853 36.8766 36.5261 36.5329C37.3668 36.1875 38.5836 34.8781 40.0041 32.2235C40.5432 30.9891 40.7888 30.3219 40.7391 30.2204Z" fill="white"/>
<path d="M35.5889 11.8875C35.5361 11.8281 33.6324 11.9109 31.9758 13.7187C30.3192 15.525 30.5741 17.5969 30.6113 17.65C30.6486 17.7031 32.9735 17.786 34.4576 15.6844C35.9418 13.5829 35.6418 11.9484 35.5889 11.8875ZM40.7391 30.2204C40.6645 30.0704 37.1259 28.2922 37.4554 24.8735C37.7849 21.4531 40.0584 20.5156 40.0942 20.4141C40.1299 20.3125 39.1664 19.1797 38.1454 18.6062C37.3957 18.202 36.566 17.9704 35.7164 17.9281C35.5485 17.9235 34.9658 17.7797 33.7676 18.1094C32.9781 18.3266 31.1988 19.0297 30.7092 19.0579C30.2181 19.086 28.7573 18.2422 27.1862 18.0187C26.1807 17.8235 25.1146 18.2235 24.3516 18.5312C23.5901 18.8375 22.1418 19.7094 21.1285 22.0266C20.1153 24.3422 20.6451 28.011 21.0243 29.1516C21.4035 30.2906 21.9957 32.1579 23.0027 33.5204C23.8978 35.0579 25.0851 36.125 25.5808 36.4875C26.0766 36.85 27.4753 37.0906 28.445 36.5922C29.2251 36.111 30.6331 35.8344 31.1895 35.8547C31.7442 35.875 32.8382 36.0954 33.9588 36.6969C34.8461 37.0047 35.6853 36.8766 36.5261 36.5329C37.3668 36.1875 38.5836 34.8781 40.0041 32.2235C40.5432 30.9891 40.7888 30.3219 40.7391 30.2204Z" fill="white"/>
</g>
<path d="M56.3492 14.9421C56.3492 15.9732 56.0701 16.7622 55.5121 17.3091C54.9568 17.8531 54.1565 18.1251 53.1112 18.1251H51.3901V11.8788H53.2939C54.2599 11.8788 55.0106 12.1479 55.5461 12.6862C56.0815 13.2246 56.3492 13.9766 56.3492 14.9421ZM55.5843 14.9677C55.5843 14.1531 55.3803 13.5394 54.9724 13.1264C54.5672 12.7134 53.9639 12.5069 53.1621 12.5069H52.1126V17.4971H52.9922C53.8534 17.4971 54.5007 17.2849 54.9341 16.8605C55.3675 16.4332 55.5843 15.8024 55.5843 14.9677ZM58.3379 18.1251H57.6325V13.4425H58.3379V18.1251ZM57.573 12.1736C57.573 12.0112 57.6127 11.893 57.692 11.819C57.7713 11.7421 57.8704 11.7036 57.9894 11.7036C58.1028 11.7036 58.2005 11.7421 58.2827 11.819C58.3649 11.8959 58.4059 12.0141 58.4059 12.1736C58.4059 12.3331 58.3649 12.4527 58.2827 12.5325C58.2005 12.6094 58.1028 12.6479 57.9894 12.6479C57.8704 12.6479 57.7713 12.6094 57.692 12.5325C57.6127 12.4527 57.573 12.3331 57.573 12.1736ZM62.8379 16.8476C62.8379 17.2835 62.6765 17.6195 62.3536 17.856C62.0306 18.0924 61.5773 18.2106 60.9937 18.2106C60.3762 18.2106 59.8945 18.1122 59.5489 17.9157V17.2579C59.7727 17.3717 60.0122 17.4615 60.2671 17.527C60.5249 17.5925 60.7728 17.6252 61.0107 17.6252C61.379 17.6252 61.6623 17.5669 61.8606 17.4501C62.0589 17.3305 62.1581 17.1496 62.1581 16.9075C62.1581 16.7251 62.0788 16.57 61.9202 16.4417C61.7643 16.3107 61.4583 16.157 61.0023 15.9804C60.5688 15.818 60.2601 15.677 60.0759 15.5574C59.8945 15.4349 59.7585 15.2967 59.6679 15.143C59.5801 14.9891 59.5362 14.8054 59.5362 14.5917C59.5362 14.2101 59.6907 13.9096 59.9993 13.6902C60.3082 13.4681 60.7317 13.357 61.2699 13.357C61.7713 13.357 62.2614 13.4596 62.7402 13.6646L62.4896 14.2415C62.0221 14.0477 61.5985 13.9509 61.219 13.9509C60.8847 13.9509 60.6325 14.0036 60.4626 14.109C60.2926 14.2144 60.2076 14.3596 60.2076 14.5447C60.2076 14.6701 60.2388 14.777 60.3011 14.8652C60.3662 14.9535 60.4697 15.0375 60.6113 15.1174C60.753 15.1971 61.0249 15.3124 61.4272 15.4634C61.9796 15.6656 62.3521 15.8692 62.5448 16.0744C62.7402 16.2794 62.8379 16.5372 62.8379 16.8476ZM66.1568 18.2106C65.8537 18.2106 65.5759 18.155 65.3238 18.044C65.0745 17.93 64.8649 17.7562 64.695 17.5227H64.644C64.6779 17.7961 64.695 18.0554 64.695 18.3002V20.2271H63.9895V13.4425H64.5632L64.6609 14.0834H64.695C64.8762 13.827 65.0873 13.6419 65.3281 13.528C65.5688 13.414 65.8451 13.357 66.1568 13.357C66.7743 13.357 67.2502 13.5692 67.5845 13.9936C67.9217 14.418 68.0901 15.0134 68.0901 15.7795C68.0901 16.5486 67.9188 17.1467 67.576 17.574C67.236 17.9984 66.763 18.2106 66.1568 18.2106ZM66.0547 13.9595C65.5788 13.9595 65.2346 14.0919 65.0222 14.3569C64.8097 14.6217 64.7005 15.0432 64.695 15.6215V15.7795C64.695 16.4375 64.804 16.9089 65.0222 17.1937C65.2402 17.4757 65.5901 17.6167 66.0717 17.6167C66.474 17.6167 66.7885 17.4529 67.0151 17.1254C67.2446 16.7979 67.3593 16.3464 67.3593 15.771C67.3593 15.1871 67.2446 14.7399 67.0151 14.4295C66.7885 14.1161 66.4683 13.9595 66.0547 13.9595ZM73.3467 15.7795C73.3467 16.5429 73.1555 17.1396 72.7729 17.5697C72.3905 17.997 71.8623 18.2106 71.1879 18.2106C70.7716 18.2106 70.4018 18.1122 70.0789 17.9157C69.7559 17.7192 69.5067 17.4372 69.331 17.0699C69.1553 16.7024 69.0676 16.2722 69.0676 15.7795C69.0676 15.0162 69.2573 14.4224 69.637 13.9979C70.0165 13.5706 70.5435 13.357 71.2178 13.357C71.8693 13.357 72.3863 13.575 72.7687 14.0107C73.154 14.4465 73.3467 15.0361 73.3467 15.7795ZM69.7985 15.7795C69.7985 16.3777 69.9174 16.8334 70.1554 17.1467C70.3934 17.46 70.7432 17.6167 71.2049 17.6167C71.6667 17.6167 72.0165 17.4615 72.2546 17.151C72.4953 16.8377 72.6158 16.3805 72.6158 15.7795C72.6158 15.1842 72.4953 14.7327 72.2546 14.4251C72.0165 14.1147 71.664 13.9595 71.1965 13.9595C70.7348 13.9595 70.3863 14.1119 70.1512 14.4166C69.916 14.7214 69.7985 15.1757 69.7985 15.7795ZM77.7745 18.1251V15.096C77.7745 14.7142 77.6881 14.4295 77.5153 14.2415C77.3425 14.0535 77.0719 13.9595 76.7037 13.9595C76.2163 13.9595 75.8594 14.0919 75.6328 14.3569C75.4061 14.6217 75.2929 15.0589 75.2929 15.6685V18.1251H74.5874V13.4425H75.1611L75.2758 14.0834H75.3099C75.4544 13.8526 75.6569 13.6746 75.9175 13.5494C76.1782 13.4211 76.4685 13.357 76.7886 13.357C77.3496 13.357 77.7716 13.4937 78.055 13.7672C78.3382 14.0377 78.4799 14.4721 78.4799 15.0704V18.1251H77.7745ZM80.6385 18.1251H79.9331V13.4425H80.6385V18.1251ZM79.9034 12.7162C80.0394 12.5396 80.1853 12.326 80.341 12.0753C80.4998 11.8247 80.6244 11.6068 80.715 11.4216H81.5735V11.5113C81.4488 11.6965 81.2632 11.9244 81.0167 12.1949C80.7703 12.4655 80.5564 12.6749 80.3751 12.823H79.9034V12.7162ZM83.1541 18.1251L81.3865 13.4425H82.1429L83.1457 16.2196C83.3723 16.869 83.5055 17.2906 83.5451 17.4842H83.5791C83.6103 17.3332 83.708 17.0214 83.8724 16.5486C84.0394 16.0729 84.412 15.0375 84.9899 13.4425H85.7463L83.9785 18.1251H83.1541ZM88.4617 18.2106C87.7733 18.2106 87.2294 17.9997 86.8299 17.5782C86.4333 17.1567 86.235 16.5714 86.235 15.8222C86.235 15.0675 86.4191 14.4679 86.7874 14.0236C87.1585 13.5792 87.6557 13.357 88.2789 13.357C88.8625 13.357 89.3242 13.5507 89.6643 13.9381C90.0042 14.3226 90.1741 14.831 90.1741 15.4634V15.912H86.9659C86.9801 16.4617 87.1175 16.879 87.378 17.1639C87.6415 17.4486 88.0112 17.5911 88.4871 17.5911C88.9885 17.5911 89.4843 17.4856 89.9744 17.2749V17.9072C89.7252 18.0155 89.4886 18.0924 89.2648 18.138C89.0437 18.1864 88.7761 18.2106 88.4617 18.2106ZM88.2704 13.9509C87.8965 13.9509 87.5976 14.0734 87.3738 14.3184C87.1529 14.5634 87.0225 14.9022 86.9828 15.3352H89.4177C89.4177 14.888 89.3186 14.5462 89.1203 14.3099C88.922 14.0705 88.6387 13.9509 88.2704 13.9509ZM92.0863 18.1251H91.3809V11.4772H92.0863V18.1251ZM99.0298 18.1251V15.096C99.0298 14.7142 98.9434 14.4295 98.7706 14.2415C98.5978 14.0535 98.3273 13.9595 97.9589 13.9595C97.4717 13.9595 97.1148 14.0919 96.8881 14.3569C96.6615 14.6217 96.5482 15.0589 96.5482 15.6685V18.1251H95.8428V13.4425H96.4164L96.5312 14.0834H96.5652C96.7097 13.8526 96.9122 13.6746 97.1728 13.5494C97.4335 13.4211 97.7238 13.357 98.044 13.357C98.6049 13.357 99.027 13.4937 99.3103 13.7672C99.5935 14.0377 99.7353 14.4721 99.7353 15.0704V18.1251H99.0298ZM105.208 15.7795C105.208 16.5429 105.017 17.1396 104.635 17.5697C104.252 17.997 103.724 18.2106 103.05 18.2106C102.633 18.2106 102.264 18.1122 101.941 17.9157C101.618 17.7192 101.368 17.4372 101.193 17.0699C101.017 16.7024 100.929 16.2722 100.929 15.7795C100.929 15.0162 101.119 14.4224 101.499 13.9979C101.878 13.5706 102.405 13.357 103.079 13.357C103.731 13.357 104.248 13.575 104.631 14.0107C105.016 14.4465 105.208 15.0361 105.208 15.7795ZM101.66 15.7795C101.66 16.3777 101.779 16.8334 102.017 17.1467C102.255 17.46 102.605 17.6167 103.067 17.6167C103.529 17.6167 103.878 17.4615 104.116 17.151C104.357 16.8377 104.477 16.3805 104.477 15.7795C104.477 15.1842 104.357 14.7327 104.116 14.4251C103.878 14.1147 103.526 13.9595 103.058 13.9595C102.596 13.9595 102.248 14.1119 102.013 14.4166C101.778 14.7214 101.66 15.1757 101.66 15.7795Z" fill="white"/>
<path d="M58.5347 36.8751L57.4929 33.9014H53.4208L52.3791 36.8751H50.5361L54.499 26.1231H56.4367L60.3922 36.8751H58.5347ZM57.0413 32.3927L56.0288 29.4629C55.9899 29.3361 55.934 29.1578 55.8612 28.9283C55.7883 28.6939 55.7155 28.4571 55.6426 28.2178C55.5698 27.9737 55.5091 27.7686 55.4606 27.6026C55.412 27.8028 55.3513 28.0274 55.2785 28.2764C55.2105 28.5206 55.1425 28.7501 55.0745 28.9649C55.0113 29.1798 54.9628 29.3458 54.9288 29.4629L53.9089 32.3927H57.0413ZM65.761 28.6133C66.7177 28.6133 67.485 28.9649 68.063 29.6681C68.6457 30.3712 68.9371 31.4161 68.9371 32.8028C68.9371 33.7208 68.8011 34.4947 68.5292 35.1246C68.262 35.7496 67.8857 36.2232 67.4001 36.5454C66.9192 36.8628 66.3584 37.0216 65.7174 37.0216C65.3093 37.0216 64.9549 36.9678 64.6538 36.8604C64.3527 36.7529 64.0953 36.6138 63.8816 36.4429C63.6679 36.2672 63.4882 36.0767 63.3425 35.8717H63.2406C63.2648 36.0669 63.2867 36.2842 63.3061 36.5236C63.3303 36.7578 63.3425 36.9727 63.3425 37.1681V40.4713H61.6234V28.7672H63.022L63.2623 29.8878H63.3425C63.4931 29.6583 63.6752 29.4458 63.8888 29.2506C64.1074 29.0552 64.3697 28.9014 64.6757 28.7891C64.9865 28.6719 65.3483 28.6133 65.761 28.6133ZM65.3021 30.0196C64.8311 30.0196 64.4523 30.1148 64.1657 30.3052C63.884 30.4908 63.6776 30.7716 63.5465 31.1476C63.4202 31.5236 63.3522 31.9947 63.3425 32.5611V32.8028C63.3425 33.4034 63.4032 33.9137 63.5247 34.3336C63.6509 34.7486 63.8574 35.0659 64.1438 35.2857C64.4352 35.5006 64.8286 35.6079 65.3239 35.6079C65.7416 35.6079 66.0864 35.4932 66.3584 35.2637C66.6351 35.0342 66.8415 34.7071 66.9775 34.2823C67.1135 33.8574 67.1815 33.3569 67.1815 32.7808C67.1815 31.9068 67.0261 31.2281 66.7153 30.7447C66.4094 30.2613 65.9383 30.0196 65.3021 30.0196ZM75.0562 28.6133C76.0129 28.6133 76.7802 28.9649 77.3581 29.6681C77.9409 30.3712 78.2324 31.4161 78.2324 32.8028C78.2324 33.7208 78.0963 34.4947 77.8243 35.1246C77.5573 35.7496 77.1809 36.2232 76.6952 36.5454C76.2144 36.8628 75.6535 37.0216 75.0125 37.0216C74.6046 37.0216 74.25 36.9678 73.9489 36.8604C73.6479 36.7529 73.3904 36.6138 73.1768 36.4429C72.9631 36.2672 72.7833 36.0767 72.6378 35.8717H72.5357C72.5601 36.0669 72.5818 36.2842 72.6013 36.5236C72.6256 36.7578 72.6378 36.9727 72.6378 37.1681V40.4713H70.9185V28.7672H72.3171L72.5576 29.8878H72.6378C72.7883 29.6583 72.9703 29.4458 73.184 29.2506C73.4026 29.0552 73.6648 28.9014 73.9708 28.7891C74.2816 28.6719 74.6434 28.6133 75.0562 28.6133ZM74.5972 30.0196C74.1262 30.0196 73.7474 30.1148 73.4609 30.3052C73.1792 30.4908 72.9728 30.7716 72.8417 31.1476C72.7155 31.5236 72.6475 31.9947 72.6378 32.5611V32.8028C72.6378 33.4034 72.6984 33.9137 72.8198 34.3336C72.9461 34.7486 73.1525 35.0659 73.439 35.2857C73.7305 35.5006 74.1238 35.6079 74.6191 35.6079C75.0367 35.6079 75.3816 35.4932 75.6535 35.2637C75.9304 35.0342 76.1367 34.7071 76.2728 34.2823C76.4088 33.8574 76.4766 33.3569 76.4766 32.7808C76.4766 31.9068 76.3212 31.2281 76.0104 30.7447C75.7046 30.2613 75.2334 30.0196 74.5972 30.0196ZM90.4122 33.9601C90.4122 34.5948 90.2568 35.1417 89.9459 35.6007C89.64 36.0597 89.1981 36.4112 88.6201 36.6553C88.0471 36.8994 87.3624 37.0216 86.5659 37.0216C86.1774 37.0216 85.8059 36.9996 85.4514 36.9557C85.0968 36.9117 84.7617 36.8482 84.4461 36.7652C84.1353 36.6773 83.8512 36.5723 83.5938 36.4503V34.7949C84.026 34.9854 84.5092 35.1588 85.0435 35.3151C85.5777 35.4663 86.1216 35.5421 86.6752 35.5421C87.1269 35.5421 87.5007 35.4834 87.797 35.3663C88.0981 35.2442 88.3215 35.0733 88.4672 34.8536C88.6129 34.6289 88.6858 34.3677 88.6858 34.0699C88.6858 33.7526 88.6008 33.4839 88.4308 33.2642C88.2609 33.0444 88.0034 32.8443 87.6586 32.6637C87.3187 32.4781 86.8913 32.2803 86.3765 32.0703C86.0269 31.9288 85.6918 31.7677 85.3712 31.5869C85.0555 31.4063 84.7739 31.1939 84.5263 30.9498C84.2785 30.7057 84.0818 30.4176 83.9361 30.0856C83.7954 29.7486 83.7249 29.3531 83.7249 28.8989C83.7249 28.2936 83.8682 27.7759 84.1547 27.3463C84.4461 26.9166 84.854 26.5869 85.3785 26.3574C85.9079 26.1279 86.5247 26.0132 87.2288 26.0132C87.7873 26.0132 88.3118 26.0718 88.8023 26.1891C89.2976 26.3062 89.7833 26.4722 90.2592 26.6871L89.7056 28.1007C89.2685 27.9199 88.8436 27.7759 88.4308 27.6686C88.0229 27.5611 87.6052 27.5074 87.1779 27.5074C86.8087 27.5074 86.4954 27.5636 86.2381 27.6758C85.9807 27.7882 85.7841 27.9468 85.6481 28.1519C85.5169 28.3521 85.4514 28.5913 85.4514 28.8697C85.4514 29.1822 85.5266 29.4458 85.6771 29.6607C85.8326 29.8707 86.0705 30.0636 86.3911 30.2393C86.7165 30.4151 87.1341 30.6104 87.6441 30.8253C88.2316 31.0694 88.7294 31.3257 89.1373 31.5943C89.5502 31.8628 89.8659 32.1851 90.0844 32.5611C90.3029 32.9322 90.4122 33.3986 90.4122 33.9601ZM95.2929 35.6299C95.5163 35.6299 95.7372 35.6104 95.9558 35.5713C96.1743 35.5274 96.3735 35.4762 96.5532 35.4176V36.7213C96.3637 36.8043 96.1185 36.8751 95.8174 36.9337C95.5163 36.9923 95.203 37.0216 94.8776 37.0216C94.4211 37.0216 94.0109 36.9458 93.6466 36.7944C93.2823 36.6382 92.9934 36.3722 92.7797 35.9962C92.5661 35.6202 92.4592 35.1002 92.4592 34.4361V30.0782H91.3593V29.3092L92.5394 28.7012L93.1002 26.9654H94.1783V28.7672H96.4876V30.0782H94.1783V34.4141C94.1783 34.8243 94.2804 35.1294 94.4843 35.3297C94.6883 35.5298 94.9578 35.6299 95.2929 35.6299ZM105.331 32.8028C105.331 33.4766 105.244 34.0748 105.069 34.5972C104.894 35.1197 104.639 35.5616 104.304 35.9229C103.969 36.2793 103.566 36.5528 103.095 36.7432C102.624 36.9288 102.092 37.0216 101.499 37.0216C100.946 37.0216 100.438 36.9288 99.9769 36.7432C99.5156 36.5528 99.1149 36.2793 98.775 35.9229C98.4399 35.5616 98.1801 35.1197 97.9954 34.5972C97.8109 34.0748 97.7187 33.4766 97.7187 32.8028C97.7187 31.9092 97.8716 31.1524 98.1776 30.5323C98.4884 29.9073 98.9304 29.4312 99.5034 29.1041C100.077 28.7769 100.759 28.6133 101.55 28.6133C102.293 28.6133 102.949 28.7769 103.517 29.1041C104.085 29.4312 104.53 29.9073 104.85 30.5323C105.171 31.1573 105.331 31.9141 105.331 32.8028ZM99.4816 32.8028C99.4816 33.3936 99.552 33.8989 99.6928 34.3189C99.8386 34.7388 100.062 35.0611 100.363 35.2857C100.664 35.5054 101.053 35.6153 101.528 35.6153C102.005 35.6153 102.393 35.5054 102.694 35.2857C102.995 35.0611 103.216 34.7388 103.357 34.3189C103.498 33.8989 103.568 33.3936 103.568 32.8028C103.568 32.2119 103.498 31.7114 103.357 31.3013C103.216 30.8863 102.995 30.5713 102.694 30.3566C102.393 30.1368 102.002 30.0269 101.521 30.0269C100.812 30.0269 100.295 30.2662 99.9696 30.7447C99.6442 31.2232 99.4816 31.9092 99.4816 32.8028ZM111.385 28.6133C111.521 28.6133 111.669 28.6207 111.829 28.6353C111.989 28.6499 112.128 28.6694 112.244 28.6939L112.084 30.3052C111.982 30.2759 111.856 30.2539 111.705 30.2393C111.559 30.2247 111.428 30.2173 111.312 30.2173C111.006 30.2173 110.714 30.2686 110.438 30.3712C110.161 30.4688 109.916 30.6202 109.702 30.8253C109.488 31.0254 109.321 31.2769 109.199 31.5797C109.078 31.8824 109.017 32.2339 109.017 32.6343V36.8751H107.298V28.7672H108.638L108.871 30.1953H108.952C109.112 29.9073 109.311 29.6436 109.549 29.4043C109.787 29.1651 110.059 28.9747 110.365 28.8331C110.676 28.6866 111.016 28.6133 111.385 28.6133ZM116.95 28.6133C117.669 28.6133 118.286 28.7623 118.8 29.0601C119.315 29.3579 119.711 29.7803 119.988 30.3272C120.265 30.8741 120.403 31.5284 120.403 32.2901V33.2129H115.02C115.039 33.9991 115.248 34.6046 115.646 35.0293C116.049 35.4542 116.613 35.6666 117.336 35.6666C117.851 35.6666 118.312 35.6177 118.72 35.5201C119.133 35.4176 119.558 35.2686 119.995 35.0733V36.4722C119.592 36.6627 119.182 36.8018 118.764 36.8897C118.346 36.9776 117.846 37.0216 117.263 37.0216C116.472 37.0216 115.775 36.8677 115.173 36.5601C114.575 36.2476 114.107 35.7838 113.767 35.1686C113.432 34.5533 113.264 33.7891 113.264 32.8761C113.264 31.9678 113.417 31.1963 113.723 30.5616C114.029 29.9268 114.459 29.4434 115.012 29.1114C115.566 28.7793 116.212 28.6133 116.95 28.6133ZM116.95 29.9097C116.411 29.9097 115.974 30.0856 115.639 30.4371C115.309 30.7887 115.114 31.3038 115.056 31.9824H118.728C118.723 31.5772 118.655 31.2183 118.524 30.9058C118.397 30.5933 118.203 30.3492 117.941 30.1734C117.683 29.9976 117.353 29.9097 116.95 29.9097Z" fill="white"/>
<path d="M132.59 0.625H5.77933C3.37614 0.625 1.42798 2.58375 1.42798 5V45C1.42798 47.4162 3.37614 49.375 5.77933 49.375H132.59C134.993 49.375 136.941 47.4162 136.941 45V5C136.941 2.58375 134.993 0.625 132.59 0.625Z" stroke="#909090"/>
</g>
<defs>
<clipPath id="clip0_423_10869">
<rect width="138" height="50" fill="white" transform="translate(0.687988)"/>
</clipPath>
</defs>
</svg>
