<svg width="24" height="24" viewBox="0 0 24 24" fill="none" xmlns="http://www.w3.org/2000/svg">
<path d="M12.1219 20C16.3634 20 19.8019 16.4183 19.8019 12C19.8019 7.58172 16.3634 4 12.1219 4C7.88035 4 4.44189 7.58172 4.44189 12C4.44189 16.4183 7.88035 20 12.1219 20Z" stroke="#01D318" stroke-width="1.5" stroke-linecap="round" stroke-linejoin="round"/>
<path d="M14.522 16H20.7672C22.0223 16 22.202 14.5462 22.202 12.78V12C22.202 10.8954 21.3423 10 20.282 10H19.802" stroke="#01D318" stroke-width="1.5" stroke-linecap="round" stroke-linejoin="round"/>
<path d="M10.6818 12.8706C10.1036 12.5106 9.33991 12.5106 8.76172 12.8906" stroke="#01D318" stroke-width="1.5" stroke-miterlimit="10" stroke-linecap="round" stroke-linejoin="round"/>
<path d="M15.482 12.8706C14.9038 12.5106 14.1401 12.5106 13.562 12.8906" stroke="#01D318" stroke-width="1.5" stroke-miterlimit="10" stroke-linecap="round" stroke-linejoin="round"/>
</svg>
