<svg width="36" height="36" viewBox="0 0 36 36" fill="none" xmlns="http://www.w3.org/2000/svg">
<path d="M10.8781 7.91998H24.5149C25.4509 7.91998 26.2861 7.94883 27.0349 8.04963C31.0237 8.49603 32.1037 10.368 32.1037 15.4944V24.5952C32.1037 29.7216 31.0237 31.5936 27.0349 32.04C26.2861 32.1408 25.4653 32.1696 24.5149 32.1696H10.8781C9.94209 32.1696 9.10689 32.1408 8.35809 32.04C4.36929 31.5936 3.28931 29.7216 3.28931 24.5952V15.4944C3.28931 10.368 4.36929 8.49603 8.35809 8.04963C9.10689 7.94883 9.94209 7.91998 10.8781 7.91998Z" stroke="#282828" stroke-width="1.5" stroke-linecap="round" stroke-linejoin="round"/>
<path d="M12.8066 20.0356V17.9044C12.8066 15.154 14.7507 14.0451 17.1267 15.4132L18.9699 16.4788L20.8131 17.5444C23.1891 18.9124 23.1891 21.1588 20.8131 22.5268L18.9699 23.5924L17.1267 24.658C14.7507 26.026 12.8066 24.9028 12.8066 22.1668V20.0356Z" stroke="#282828" stroke-width="1.5" stroke-miterlimit="10" stroke-linecap="round" stroke-linejoin="round"/>
<path d="M13.3833 3.59998L17.7032 7.91998" stroke="#282828" stroke-width="1.5" stroke-linecap="round" stroke-linejoin="round"/>
<path d="M22.0231 3.59998L17.7031 7.91998" stroke="#282828" stroke-width="1.5" stroke-linecap="round" stroke-linejoin="round"/>
</svg>
