<svg width="36" height="36" viewBox="0 0 36 36" fill="none" xmlns="http://www.w3.org/2000/svg">
<path d="M8.58374 25.4835V9.01652C8.58374 7.35069 10.3283 6 12.4478 6H16.2397C18.3735 6 20.1037 7.36194 20.1037 9.01652V25.4835C20.1037 27.1494 18.3591 28.5 16.2397 28.5H12.4478C10.3283 28.5 8.58374 27.1382 8.58374 25.4835Z" stroke="#282828" stroke-width="1.5" stroke-linecap="round" stroke-linejoin="round"/>
<path d="M8.12491 21C6.00704 21 4.26376 22.8022 4.26376 25.0251V28.975C4.26376 31.1827 5.99264 33 8.12491 33H29.2026C31.3204 33 33.0637 31.1827 33.0637 28.975V25.0251C33.0637 22.8172 31.3348 21 29.2026 21H25.1437" stroke="#282828" stroke-width="1.5" stroke-linecap="round" stroke-linejoin="round"/>
<path d="M25.1437 27H26.5837" stroke="#282828" stroke-width="1.5" stroke-linecap="round" stroke-linejoin="round"/>
<path d="M17.2237 3V6" stroke="#282828" stroke-width="1.5" stroke-linecap="round" stroke-linejoin="round"/>
<path d="M12.9037 11.1211H15.7837" stroke="#282828" stroke-width="1.5" stroke-linecap="round" stroke-linejoin="round"/>
</svg>
