<svg width="36" height="36" viewBox="0 0 36 36" fill="none" xmlns="http://www.w3.org/2000/svg">
<path d="M29.1797 18H6.13965V27.6C6.13965 31.2001 7.57965 32.4 11.8996 32.4H23.4197C27.7397 32.4 29.1797 31.2001 29.1797 27.6V18Z" stroke="white" stroke-width="1.5" stroke-miterlimit="10" stroke-linecap="round" stroke-linejoin="round"/>
<path d="M31.3832 13.68V15.12C31.3832 16.704 30.62 18 28.5032 18H6.90332C4.70012 18 4.02332 16.704 4.02332 15.12V13.68C4.02332 12.096 4.70012 10.8 6.90332 10.8H28.5032C30.62 10.8 31.3832 12.096 31.3832 13.68Z" stroke="white" stroke-width="1.5" stroke-miterlimit="10" stroke-linecap="round" stroke-linejoin="round"/>
<path d="M17.7032 10.8V32.4" stroke="white" stroke-width="1.5"/>
<path d="M16.5409 9.78419C16.5409 9.78419 15.6333 5.99513 14.1806 5.03753C12.9759 4.24343 11.3379 4.59515 10.5295 5.82148C9.7211 7.0478 10.0435 8.69186 11.2482 9.48597C12.7008 10.4436 16.5409 9.78419 16.5409 9.78419Z" stroke="white" stroke-width="1.5" stroke-linecap="round" stroke-linejoin="round"/>
<path d="M18.8811 9.78419C18.8811 9.78419 19.7889 5.99513 21.2416 5.03753C22.4461 4.24343 24.0841 4.59515 24.8925 5.82148C25.7009 7.0478 25.3785 8.69186 24.174 9.48597C22.7213 10.4436 18.8811 9.78419 18.8811 9.78419Z" stroke="white" stroke-width="1.5" stroke-linecap="round" stroke-linejoin="round"/>
</svg>
