<svg width="24" height="24" viewBox="0 0 24 24" fill="none" xmlns="http://www.w3.org/2000/svg">
<path d="M19.4582 12.9603C19.2382 12.9603 19.0082 12.8903 18.7882 12.8403C18.3427 12.7421 17.9049 12.6118 17.4782 12.4503C17.0143 12.2815 16.5043 12.2903 16.0465 12.4749C15.5887 12.6595 15.2153 13.0069 14.9982 13.4503L14.7782 13.9003C13.8042 13.3585 12.9092 12.6855 12.1182 11.9003C11.333 11.1093 10.66 10.2143 10.1182 9.24032L10.5382 8.96032C10.9815 8.74324 11.329 8.36985 11.5136 7.91201C11.6982 7.45417 11.707 6.94423 11.5382 6.48032C11.3794 6.05274 11.2491 5.61512 11.1482 5.17032C11.0982 4.95032 11.0582 4.72032 11.0282 4.49032C10.9067 3.78594 10.5378 3.14806 9.98779 2.69156C9.43779 2.23505 8.74287 1.98993 8.02817 2.00032H5.02817C4.5972 1.99627 4.17042 2.08513 3.77688 2.26085C3.38334 2.43657 3.03228 2.69501 2.7476 3.0186C2.46292 3.34219 2.25131 3.72331 2.12716 4.13603C2.00301 4.54875 1.96925 4.98338 2.02817 5.41032C2.56091 9.5997 4.4742 13.4922 7.46582 16.4729C10.4574 19.4537 14.3569 21.3528 18.5482 21.8703H18.9282C19.6656 21.8714 20.3776 21.6008 20.9282 21.1103C21.2446 20.8273 21.4973 20.4805 21.6697 20.0926C21.842 19.7047 21.9302 19.2847 21.9282 18.8603V15.8603C21.916 15.1657 21.663 14.4968 21.2125 13.968C20.7621 13.4391 20.142 13.0829 19.4582 12.9603ZM19.9582 18.9603C19.958 19.1023 19.9276 19.2426 19.869 19.3719C19.8104 19.5012 19.7249 19.6166 19.6182 19.7103C19.5065 19.8068 19.3758 19.8788 19.2346 19.9219C19.0934 19.9649 18.9448 19.978 18.7982 19.9603C15.0531 19.4801 11.5744 17.7668 8.91089 15.0906C6.24737 12.4144 4.55058 8.92766 4.08817 5.18032C4.07226 5.03384 4.0862 4.88565 4.12917 4.74471C4.17214 4.60377 4.24324 4.47301 4.33817 4.36032C4.43188 4.25365 4.54723 4.16816 4.67655 4.10954C4.80587 4.05091 4.94619 4.0205 5.08817 4.02032H8.08817C8.32072 4.01515 8.54779 4.0912 8.73031 4.23539C8.91283 4.37958 9.03938 4.58289 9.08817 4.81032C9.12817 5.08365 9.17817 5.35365 9.23817 5.62032C9.35369 6.14746 9.50743 6.6655 9.69817 7.17032L8.29817 7.82032C8.17847 7.87524 8.07079 7.95327 7.98133 8.04992C7.89186 8.14657 7.82237 8.25993 7.77684 8.38352C7.73131 8.5071 7.71064 8.63845 7.71602 8.77004C7.72139 8.90163 7.75271 9.03087 7.80817 9.15032C9.24737 12.233 11.7254 14.7111 14.8082 16.1503C15.0517 16.2503 15.3247 16.2503 15.5682 16.1503C15.6929 16.1057 15.8075 16.0367 15.9054 15.9475C16.0032 15.8582 16.0824 15.7504 16.1382 15.6303L16.7582 14.2303C17.2752 14.4152 17.8028 14.5688 18.3382 14.6903C18.6049 14.7503 18.8749 14.8003 19.1482 14.8403C19.3756 14.8891 19.5789 15.0156 19.7231 15.1981C19.8673 15.3807 19.9434 15.6077 19.9382 15.8403L19.9582 18.9603Z" fill="#282828"/>
</svg>
