<svg width="36" height="36" viewBox="0 0 36 36" fill="none" xmlns="http://www.w3.org/2000/svg">
<path d="M10.878 7.91992H24.5148C25.4508 7.91992 26.286 7.94877 27.0348 8.04957C31.0236 8.49597 32.1036 10.3679 32.1036 15.4943V24.5951C32.1036 29.7215 31.0236 31.5935 27.0348 32.0399C26.286 32.1407 25.4652 32.1695 24.5148 32.1695H10.878C9.94197 32.1695 9.10677 32.1407 8.35797 32.0399C4.36917 31.5935 3.28918 29.7215 3.28918 24.5951V15.4943C3.28918 10.3679 4.36917 8.49597 8.35797 8.04957C9.10677 7.94877 9.94197 7.91992 10.878 7.91992Z" stroke="#009E0B" stroke-width="1.5" stroke-linecap="round" stroke-linejoin="round"/>
<path d="M12.8068 20.0357V17.9045C12.8068 15.1541 14.7508 14.0452 17.1268 15.4133L18.97 16.4789L20.8132 17.5445C23.1892 18.9125 23.1892 21.1589 20.8132 22.5269L18.97 23.5925L17.1268 24.6581C14.7508 26.0261 12.8068 24.9029 12.8068 22.1669V20.0357Z" stroke="#009E0B" stroke-width="1.5" stroke-miterlimit="10" stroke-linecap="round" stroke-linejoin="round"/>
<path d="M13.3833 3.6001L17.7032 7.9201" stroke="#009E0B" stroke-width="1.5" stroke-linecap="round" stroke-linejoin="round"/>
<path d="M22.0232 3.6001L17.7032 7.9201" stroke="#009E0B" stroke-width="1.5" stroke-linecap="round" stroke-linejoin="round"/>
</svg>
