<svg width="36" height="36" viewBox="0 0 36 36" fill="none" xmlns="http://www.w3.org/2000/svg">
<path d="M10.878 7.91998H24.5148C25.4508 7.91998 26.286 7.94883 27.0348 8.04963C31.0236 8.49603 32.1036 10.368 32.1036 15.4944V24.5952C32.1036 29.7216 31.0236 31.5936 27.0348 32.04C26.286 32.1408 25.4652 32.1696 24.5148 32.1696H10.878C9.94197 32.1696 9.10677 32.1408 8.35797 32.04C4.36917 31.5936 3.28918 29.7216 3.28918 24.5952V15.4944C3.28918 10.368 4.36917 8.49603 8.35797 8.04963C9.10677 7.94883 9.94197 7.91998 10.878 7.91998Z" stroke="white" stroke-width="1.5" stroke-linecap="round" stroke-linejoin="round"/>
<path d="M12.8068 20.0356V17.9044C12.8068 15.154 14.7508 14.0451 17.1268 15.4132L18.97 16.4788L20.8132 17.5444C23.1892 18.9124 23.1892 21.1588 20.8132 22.5268L18.97 23.5924L17.1268 24.658C14.7508 26.026 12.8068 24.9028 12.8068 22.1668V20.0356Z" stroke="white" stroke-width="1.5" stroke-miterlimit="10" stroke-linecap="round" stroke-linejoin="round"/>
<path d="M13.3833 3.59998L17.7032 7.91998" stroke="white" stroke-width="1.5" stroke-linecap="round" stroke-linejoin="round"/>
<path d="M22.0232 3.59998L17.7032 7.91998" stroke="white" stroke-width="1.5" stroke-linecap="round" stroke-linejoin="round"/>
</svg>
