<svg width="131" height="40" viewBox="0 0 131 40" fill="none" xmlns="http://www.w3.org/2000/svg">
<g clip-path="url(#clip0_41_10817)">
<path d="M27.9126 7.62558C30.0236 7.62558 31.726 5.91591 31.726 3.80914C31.726 1.70835 30.0236 0 27.9126 0C25.8082 0 24.1032 1.70835 24.1032 3.80914C24.1032 5.91591 25.8082 7.62558 27.9126 7.62558ZM27.961 10.4496C25.8181 10.4496 24.072 15.5475 24.072 21.834C24.072 28.1224 25.8181 33.2163 27.961 33.2163C30.1066 33.2163 31.8448 28.1218 31.8448 21.834C31.8448 15.5475 30.1066 10.4496 27.961 10.4496ZM10.6362 10.437C4.24796 10.437 0 15.4892 0 21.8214C0 28.1635 4.24796 33.2084 10.6362 33.2084C17.0078 33.2084 21.2511 28.1635 21.2511 21.8214C21.2511 15.4892 17.0078 10.437 10.6362 10.437ZM10.6362 27.842C7.70643 27.842 6.085 24.8357 6.085 21.7856C6.085 18.7401 7.70643 15.8173 10.6362 15.8173C13.5553 15.8173 15.1734 18.7408 15.1734 21.7856C15.1734 24.835 13.5553 27.842 10.6362 27.842Z" fill="#BFEE62"/>
<path d="M54.6224 34.4294V38.1292H37.1257V34.4294H54.6224Z" fill="#282828"/>
<path d="M76.3917 24.2239C76.3917 30.6887 71.6714 32.9247 68.0504 32.9247C65.8531 32.9247 63.7779 31.7453 63.1675 30.5256V39.9994H58.895V11.5382H63.1675V13.3679C63.7779 12.1481 65.8531 10.9688 68.0504 10.9688C71.6721 10.9688 76.3917 13.2048 76.3917 19.6696V24.2239ZM72.1192 19.7518C72.1192 16.5804 70.2881 15.1166 67.643 15.1166C64.9979 15.1166 63.1669 16.5804 63.1669 19.7518V24.143C63.1669 27.3144 64.9979 28.7781 67.643 28.7781C70.2881 28.7781 72.1192 27.3144 72.1192 24.143V19.7518Z" fill="#282828"/>
<path d="M85.628 26.4194C85.628 27.9647 85.9126 28.4115 87.5812 28.4115H88.232V32.5183H86.3604C82.8608 32.5183 81.3555 30.8106 81.3555 27.5172V4.05713H85.628V26.4194Z" fill="#282828"/>
<path d="M96.2476 18.0442H91.8934C92.6259 12.4736 97.1425 10.9695 100.52 10.9695C104.182 10.9695 109.269 12.7587 109.269 19.6703V32.5184H104.996V30.5263C103.653 32.1525 101.497 32.9254 98.7301 32.9254C94.9054 32.9254 91.5684 31.0142 91.5684 26.7046C91.5684 24.3055 92.6265 21.5 96.1255 20.4022C98.6485 19.6299 101.415 19.4264 104.955 19.1824V19.142C104.751 16.418 103.002 15.0763 100.52 15.0763C98.4044 15.0756 96.8174 16.0514 96.2476 18.0442ZM104.996 24.1424V22.963C101.252 23.207 98.4044 23.451 96.8579 24.3863C96.3292 24.7118 95.8409 25.2806 95.8409 26.338C95.8409 28.0457 97.1432 28.818 99.4214 28.818C101.863 28.8186 104.996 28.0457 104.996 24.1424Z" fill="#282828"/>
<path d="M121.517 37.3569C120.907 39.1051 119.401 40 116.878 40H114.681V35.8932H115.536C117.611 35.8932 117.692 35.5273 118.384 33.7791L118.954 32.2339L111.467 11.5388H115.902L121.151 26.4605L126.4 11.5388H130.835L121.517 37.3569Z" fill="#282828"/>
</g>
<defs>
<clipPath id="clip0_41_10817">
<rect width="131" height="40" fill="white"/>
</clipPath>
</defs>
</svg>
