<svg width="131" height="41" viewBox="0 0 131 41" fill="none" xmlns="http://www.w3.org/2000/svg">
<g clip-path="url(#clip0_25_3401)">
<path d="M27.9126 8.12558C30.0236 8.12558 31.726 6.41591 31.726 4.30914C31.726 2.20835 30.0236 0.5 27.9126 0.5C25.8082 0.5 24.1032 2.20835 24.1032 4.30914C24.1032 6.41591 25.8082 8.12558 27.9126 8.12558ZM27.961 10.9496C25.8181 10.9496 24.072 16.0475 24.072 22.334C24.072 28.6224 25.8181 33.7163 27.961 33.7163C30.1066 33.7163 31.8448 28.6218 31.8448 22.334C31.8448 16.0475 30.1066 10.9496 27.961 10.9496ZM10.6362 10.937C4.24796 10.937 0 15.9892 0 22.3214C0 28.6635 4.24796 33.7084 10.6362 33.7084C17.0078 33.7084 21.2511 28.6635 21.2511 22.3214C21.2511 15.9892 17.0078 10.937 10.6362 10.937ZM10.6362 28.342C7.70643 28.342 6.085 25.3357 6.085 22.2856C6.085 19.2401 7.70643 16.3173 10.6362 16.3173C13.5553 16.3173 15.1734 19.2408 15.1734 22.2856C15.1734 25.335 13.5553 28.342 10.6362 28.342Z" fill="#BFEE62"/>
<path d="M54.6224 34.9294V38.6292H37.1257V34.9294H54.6224Z" fill="white"/>
<path d="M76.3917 24.7239C76.3917 31.1887 71.6714 33.4247 68.0504 33.4247C65.8531 33.4247 63.7779 32.2453 63.1675 31.0256V40.4994H58.895V12.0382H63.1675V13.8679C63.7779 12.6481 65.8531 11.4688 68.0504 11.4688C71.6721 11.4688 76.3917 13.7048 76.3917 20.1696V24.7239ZM72.1192 20.2518C72.1192 17.0804 70.2881 15.6166 67.643 15.6166C64.9979 15.6166 63.1669 17.0804 63.1669 20.2518V24.643C63.1669 27.8144 64.9979 29.2781 67.643 29.2781C70.2881 29.2781 72.1192 27.8144 72.1192 24.643V20.2518Z" fill="white"/>
<path d="M85.628 26.9194C85.628 28.4647 85.9126 28.9115 87.5812 28.9115H88.232V33.0183H86.3604C82.8608 33.0183 81.3555 31.3106 81.3555 28.0172V4.55713H85.628V26.9194Z" fill="white"/>
<path d="M96.2476 18.5442H91.8934C92.6259 12.9736 97.1425 11.4695 100.52 11.4695C104.182 11.4695 109.269 13.2587 109.269 20.1703V33.0184H104.996V31.0263C103.653 32.6525 101.497 33.4254 98.7301 33.4254C94.9054 33.4254 91.5684 31.5142 91.5684 27.2046C91.5684 24.8055 92.6265 22 96.1255 20.9022C98.6485 20.1299 101.415 19.9264 104.955 19.6824V19.642C104.751 16.918 103.002 15.5763 100.52 15.5763C98.4044 15.5756 96.8174 16.5514 96.2476 18.5442ZM104.996 24.6424V23.463C101.252 23.707 98.4044 23.951 96.8579 24.8863C96.3292 25.2118 95.8409 25.7806 95.8409 26.838C95.8409 28.5457 97.1432 29.318 99.4214 29.318C101.863 29.3186 104.996 28.5457 104.996 24.6424Z" fill="white"/>
<path d="M121.517 37.8569C120.907 39.6051 119.401 40.5 116.878 40.5H114.681V36.3932H115.536C117.611 36.3932 117.692 36.0273 118.384 34.2791L118.954 32.7339L111.467 12.0388H115.902L121.151 26.9605L126.4 12.0388H130.835L121.517 37.8569Z" fill="white"/>
</g>
<defs>
<clipPath id="clip0_25_3401">
<rect width="131" height="40" fill="white" transform="translate(0 0.5)"/>
</clipPath>
</defs>
</svg>
