<svg width="42" height="36" viewBox="0 0 42 36" fill="none" xmlns="http://www.w3.org/2000/svg">
<mask id="mask0_53_5211" style="mask-type:alpha" maskUnits="userSpaceOnUse" x="2" y="2" width="38" height="32">
<path d="M2 17.418C2 27.7663 11.061 34 22.1312 34C32.2484 34 40 26.916 40 21.1857C40 15.81 36.5003 13.2173 31.9633 10.311C27.8842 7.69867 24.7706 2 16.381 2C6.95528 2 2 10.3293 2 17.418Z" fill="#009E0B"/>
<path d="M2 17.418C2 27.7663 11.061 34 22.1312 34C32.2484 34 40 26.916 40 21.1857C40 15.81 36.5003 13.2173 31.9633 10.311C27.8842 7.69867 24.7706 2 16.381 2C6.95528 2 2 10.3293 2 17.418Z" fill="#009E0B"/>
</mask>
<g mask="url(#mask0_53_5211)">
<path fill-rule="evenodd" clip-rule="evenodd" d="M22.1312 34C11.061 34 2 27.7663 2 17.418C2 10.3293 6.95528 2 16.381 2C22.4695 2 25.7793 5.00132 28.696 7.6462C29.7983 8.6458 30.8445 9.59449 31.9633 10.311C36.5003 13.2173 40 15.81 40 21.1857C40 26.916 32.2484 34 22.1312 34ZM29.2253 11.9153C29.2253 12.9746 28.3547 13.8343 27.2744 13.8343C26.1985 13.8343 25.3266 12.9746 25.3269 11.9153C25.3269 10.859 26.1989 10 27.2744 10C28.3547 10 29.2253 10.859 29.2253 11.9153ZM25.3107 20.9786C25.3107 17.8176 26.2033 15.2543 27.2996 15.2543C28.3968 15.2543 29.2857 17.8176 29.2857 20.9786C29.2857 24.1403 28.3968 26.702 27.2996 26.702C26.2033 26.702 25.3107 24.1406 25.3107 20.9786ZM13 20.9723C13 17.7883 15.1725 15.248 18.4394 15.248C21.6979 15.248 23.868 17.7883 23.868 20.9723C23.868 24.1613 21.6979 26.698 18.4394 26.698C15.1725 26.698 13 24.1613 13 20.9723ZM16.1119 20.9543C16.1119 22.488 16.9411 23.9996 18.4394 23.9996C19.9322 23.9996 20.7598 22.4876 20.7598 20.9543C20.7598 19.4233 19.9322 17.9533 18.4394 17.9533C16.9411 17.9533 16.1119 19.423 16.1119 20.9543Z" fill="#009E0B"/>
<path fill-rule="evenodd" clip-rule="evenodd" d="M22.1312 34C11.061 34 2 27.7663 2 17.418C2 10.3293 6.95528 2 16.381 2C22.4695 2 25.7793 5.00132 28.696 7.6462C29.7983 8.6458 30.8445 9.59449 31.9633 10.311C36.5003 13.2173 40 15.81 40 21.1857C40 26.916 32.2484 34 22.1312 34ZM29.2253 11.9153C29.2253 12.9746 28.3547 13.8343 27.2744 13.8343C26.1985 13.8343 25.3266 12.9746 25.3269 11.9153C25.3269 10.859 26.1989 10 27.2744 10C28.3547 10 29.2253 10.859 29.2253 11.9153ZM25.3107 20.9786C25.3107 17.8176 26.2033 15.2543 27.2996 15.2543C28.3968 15.2543 29.2857 17.8176 29.2857 20.9786C29.2857 24.1403 28.3968 26.702 27.2996 26.702C26.2033 26.702 25.3107 24.1406 25.3107 20.9786ZM13 20.9723C13 17.7883 15.1725 15.248 18.4394 15.248C21.6979 15.248 23.868 17.7883 23.868 20.9723C23.868 24.1613 21.6979 26.698 18.4394 26.698C15.1725 26.698 13 24.1613 13 20.9723ZM16.1119 20.9543C16.1119 22.488 16.9411 23.9996 18.4394 23.9996C19.9322 23.9996 20.7598 22.4876 20.7598 20.9543C20.7598 19.4233 19.9322 17.9533 18.4394 17.9533C16.9411 17.9533 16.1119 19.423 16.1119 20.9543Z" fill="#009E0B"/>
</g>
</svg>
