<svg width="169" height="41" viewBox="0 0 169 41" fill="none" xmlns="http://www.w3.org/2000/svg">
<g clip-path="url(#clip0_25_3402)">
<path d="M27.8888 8.13016C29.9969 8.13016 31.7006 6.41983 31.7006 4.31176C31.7006 2.21032 29.9969 0.5 27.8888 0.5C25.7874 0.5 24.0837 2.21032 24.0837 4.31176C24.0837 6.41983 25.7874 8.13016 27.8888 8.13016ZM27.9419 10.9542C25.8007 10.9542 24.0572 16.052 24.0572 22.3364C24.0572 28.6275 25.8007 33.7187 27.9419 33.7187C30.0831 33.7187 31.8199 28.6275 31.8199 22.3364C31.8199 16.052 30.0831 10.9542 27.9419 10.9542ZM10.6265 10.9409C4.24266 10.9409 0 15.9923 0 22.3232C0 28.6673 4.24266 33.7121 10.6265 33.7121C16.9905 33.7121 21.2332 28.6673 21.2332 22.3232C21.2332 15.9923 16.9971 10.9409 10.6265 10.9409ZM10.6265 28.3424C7.69644 28.3424 6.07893 25.3328 6.07893 22.2834C6.07893 19.2406 7.69644 16.3172 10.6265 16.3172C13.5434 16.3172 15.1609 19.2406 15.1609 22.2834C15.1609 25.3394 13.5434 28.3424 10.6265 28.3424Z" fill="#4BE188"/>
<path d="M54.5814 34.9314V38.6305H37.0938V34.9314H54.5814Z" fill="white"/>
<path d="M71.2865 26.3534H75.6352C74.906 31.9219 70.3915 33.4267 67.0173 33.4267C63.358 33.4267 58.2734 31.6369 58.2734 24.7227V20.1684C58.2734 13.2542 63.358 11.4644 67.0173 11.4644C70.6766 11.4644 75.7611 13.2542 75.7611 20.1684V23.9537H62.5426V24.6431C62.5426 27.8118 64.3723 29.3167 67.0173 29.3167C69.132 29.3167 70.723 28.3422 71.2865 26.3534ZM62.5492 20.1287V20.1684H71.492V20.1287C71.4522 17.0792 69.6225 15.5744 67.0173 15.5744C64.3789 15.5744 62.5492 17.0792 62.5492 20.1287Z" fill="white"/>
<path d="M87.1466 25.4982L82.2278 33.0223H77.5078L84.6209 22.2499L77.8326 12.0411H82.5526L87.1466 19.0282L91.7406 12.0344H96.4606L89.6723 22.2433L96.7854 33.0223H92.0654L87.1466 25.4982Z" fill="white"/>
<path d="M117.442 24.7224C117.442 31.1858 112.722 33.4265 109.109 33.4265C106.915 33.4265 104.84 32.2465 104.23 31.0267V40.4998H99.9609V12.0408H104.23V13.8705C104.84 12.6507 106.915 11.4707 109.109 11.4707C112.729 11.4707 117.442 13.7047 117.442 20.1748V24.7224ZM113.173 20.2543C113.173 17.0856 111.343 15.6206 108.698 15.6206C106.053 15.6206 104.223 17.0856 104.223 20.2543V24.6428C104.223 27.8116 106.053 29.2766 108.698 29.2766C111.343 29.2766 113.173 27.8116 113.173 24.6428V20.2543Z" fill="white"/>
<path d="M134.919 26.3534H139.268C138.539 31.9219 134.024 33.4267 130.65 33.4267C126.991 33.4267 121.906 31.6369 121.906 24.7227V20.1684C121.906 13.2542 126.991 11.4644 130.65 11.4644C134.309 11.4644 139.394 13.2542 139.394 20.1684V23.9537H126.175V24.6431C126.175 27.8118 128.005 29.3167 130.65 29.3167C132.765 29.3167 134.349 28.3422 134.919 26.3534ZM126.175 20.1287V20.1684H135.125V20.1287C135.085 17.0792 133.255 15.5744 130.65 15.5744C128.005 15.5744 126.175 17.0792 126.175 20.1287Z" fill="white"/>
<path d="M152.97 15.8195C150.325 15.8195 148.496 17.2845 148.496 20.4533V33.0155H144.227V12.0409H148.496V14.076C149.106 12.8563 151.181 11.6763 153.375 11.6763H154.999V15.8261H152.97V15.8195Z" fill="white"/>
<path d="M163.497 26.9234C163.497 28.468 163.782 28.9188 165.446 28.9188H168.661V33.0289H164.226C160.732 33.0289 159.228 31.3186 159.228 28.0305V16.0649H156.258V12.041H159.228V7.28125H163.497V12.041H168.661V16.0649H163.497V26.9234Z" fill="white"/>
</g>
<defs>
<clipPath id="clip0_25_3402">
<rect width="169" height="40" fill="white" transform="translate(0 0.5)"/>
</clipPath>
</defs>
</svg>
