<svg width="169" height="40" viewBox="0 0 169 40" fill="none" xmlns="http://www.w3.org/2000/svg">
<g clip-path="url(#clip0_41_10870)">
<path d="M27.8888 7.63016C29.9969 7.63016 31.7006 5.91983 31.7006 3.81176C31.7006 1.71032 29.9969 0 27.8888 0C25.7874 0 24.0837 1.71032 24.0837 3.81176C24.0837 5.91983 25.7874 7.63016 27.8888 7.63016ZM27.9419 10.4542C25.8007 10.4542 24.0572 15.552 24.0572 21.8364C24.0572 28.1275 25.8007 33.2187 27.9419 33.2187C30.0831 33.2187 31.8199 28.1275 31.8199 21.8364C31.8199 15.552 30.0831 10.4542 27.9419 10.4542ZM10.6265 10.4409C4.24266 10.4409 0 15.4923 0 21.8232C0 28.1673 4.24266 33.2121 10.6265 33.2121C16.9905 33.2121 21.2332 28.1673 21.2332 21.8232C21.2332 15.4923 16.9971 10.4409 10.6265 10.4409ZM10.6265 27.8424C7.69644 27.8424 6.07893 24.8328 6.07893 21.7834C6.07893 18.7406 7.69644 15.8172 10.6265 15.8172C13.5434 15.8172 15.1609 18.7406 15.1609 21.7834C15.1609 24.8394 13.5434 27.8424 10.6265 27.8424Z" fill="#282828"/>
<path d="M54.5814 34.4314V38.1305H37.0938V34.4314H54.5814Z" fill="white"/>
<path d="M71.2865 25.8534H75.6352C74.906 31.4219 70.3915 32.9267 67.0173 32.9267C63.358 32.9267 58.2734 31.1369 58.2734 24.2227V19.6684C58.2734 12.7542 63.358 10.9644 67.0173 10.9644C70.6766 10.9644 75.7611 12.7542 75.7611 19.6684V23.4537H62.5426V24.1431C62.5426 27.3118 64.3723 28.8167 67.0173 28.8167C69.132 28.8167 70.723 27.8422 71.2865 25.8534ZM62.5492 19.6287V19.6684H71.492V19.6287C71.4522 16.5792 69.6225 15.0744 67.0173 15.0744C64.3789 15.0744 62.5492 16.5792 62.5492 19.6287Z" fill="white"/>
<path d="M87.1466 24.9982L82.2278 32.5223H77.5078L84.6209 21.7499L77.8326 11.5411H82.5526L87.1466 18.5282L91.7406 11.5344H96.4606L89.6723 21.7433L96.7854 32.5223H92.0654L87.1466 24.9982Z" fill="white"/>
<path d="M117.442 24.2224C117.442 30.6858 112.722 32.9265 109.109 32.9265C106.915 32.9265 104.84 31.7465 104.23 30.5267V39.9998H99.9609V11.5408H104.23V13.3705C104.84 12.1507 106.915 10.9707 109.109 10.9707C112.729 10.9707 117.442 13.2047 117.442 19.6748V24.2224ZM113.173 19.7543C113.173 16.5856 111.343 15.1206 108.698 15.1206C106.053 15.1206 104.223 16.5856 104.223 19.7543V24.1428C104.223 27.3116 106.053 28.7766 108.698 28.7766C111.343 28.7766 113.173 27.3116 113.173 24.1428V19.7543Z" fill="white"/>
<path d="M134.919 25.8534H139.268C138.539 31.4219 134.024 32.9267 130.65 32.9267C126.991 32.9267 121.906 31.1369 121.906 24.2227V19.6684C121.906 12.7542 126.991 10.9644 130.65 10.9644C134.309 10.9644 139.394 12.7542 139.394 19.6684V23.4537H126.175V24.1431C126.175 27.3118 128.005 28.8167 130.65 28.8167C132.765 28.8167 134.349 27.8422 134.919 25.8534ZM126.175 19.6287V19.6684H135.125V19.6287C135.085 16.5792 133.255 15.0744 130.65 15.0744C128.005 15.0744 126.175 16.5792 126.175 19.6287Z" fill="white"/>
<path d="M152.97 15.3195C150.325 15.3195 148.496 16.7845 148.496 19.9533V32.5155H144.227V11.5409H148.496V13.576C149.106 12.3563 151.181 11.1763 153.375 11.1763H154.999V15.3261H152.97V15.3195Z" fill="white"/>
<path d="M163.497 26.4234C163.497 27.968 163.782 28.4188 165.446 28.4188H168.661V32.5289H164.226C160.732 32.5289 159.228 30.8186 159.228 27.5305V15.5649H156.258V11.541H159.228V6.78125H163.497V11.541H168.661V15.5649H163.497V26.4234Z" fill="white"/>
</g>
<defs>
<clipPath id="clip0_41_10870">
<rect width="169" height="40" fill="white"/>
</clipPath>
</defs>
</svg>
