<svg width="440" height="377" viewBox="0 0 440 377" fill="none" xmlns="http://www.w3.org/2000/svg">
<g style="mix-blend-mode:soft-light">
<mask id="mask0_53_5194" style="mask-type:alpha" maskUnits="userSpaceOnUse" x="20" y="20" width="400" height="337">
<path d="M20.9521 182.405C20.9521 290.775 115.877 356.055 231.85 356.055C337.84 356.055 419.047 281.87 419.047 221.861C419.047 165.566 382.384 138.414 334.854 107.979C292.119 80.6221 259.501 20.9443 171.61 20.9443C72.8646 20.9443 20.9521 108.171 20.9521 182.405Z" fill="#009E0B"/>
<path d="M20.9521 182.405C20.9521 290.775 115.877 356.055 231.85 356.055C337.84 356.055 419.047 281.87 419.047 221.861C419.047 165.566 382.384 138.414 334.854 107.979C292.119 80.6221 259.501 20.9443 171.61 20.9443C72.8646 20.9443 20.9521 108.171 20.9521 182.405Z" fill="#009E0B"/>
</mask>
<g mask="url(#mask0_53_5194)">
<path fill-rule="evenodd" clip-rule="evenodd" d="M231.85 356.055C115.877 356.055 20.9521 290.775 20.9521 182.405C20.9521 108.171 72.8646 20.9443 171.61 20.9443C235.394 20.9443 270.068 52.3748 300.624 80.0725C312.172 90.5406 323.133 100.476 334.854 107.979C382.384 138.414 419.047 165.566 419.047 221.861C419.047 281.87 337.84 356.055 231.85 356.055ZM306.17 124.78C306.17 135.873 297.049 144.876 285.732 144.876C274.461 144.876 265.326 135.873 265.329 124.78C265.329 113.718 274.465 104.722 285.732 104.722C297.049 104.722 306.17 113.718 306.17 124.78ZM265.159 219.693C265.159 186.59 274.511 159.747 285.995 159.747C297.49 159.747 306.802 186.59 306.802 219.693C306.802 252.803 297.49 279.629 285.995 279.629C274.511 279.629 265.159 252.806 265.159 219.693ZM136.19 219.627C136.19 186.283 158.949 159.681 193.174 159.681C227.311 159.681 250.045 186.283 250.045 219.627C250.045 253.023 227.311 279.588 193.174 279.588C158.949 279.588 136.19 253.023 136.19 219.627ZM168.791 219.438C168.791 235.5 177.478 251.329 193.174 251.329C208.814 251.329 217.483 235.495 217.483 219.438C217.483 203.405 208.814 188.011 193.174 188.011C177.478 188.011 168.791 203.402 168.791 219.438Z" fill="white"/>
</g>
</g>
</svg>
