<svg width="38" height="32" viewBox="0 0 38 32" fill="none" xmlns="http://www.w3.org/2000/svg">
<path d="M0 15.418C0 25.7663 9.06097 32 20.1312 32C30.2484 32 38 24.916 38 19.1857C38 13.81 34.5003 11.2173 29.9633 8.311C25.8842 5.69867 22.7706 0 14.381 0C4.95528 0 0 8.32933 0 15.418Z" fill="url(#paint0_linear_46_3122)"/>
<path d="M25.2744 11.8343C26.3547 11.8343 27.2254 10.9746 27.2254 9.91533C27.2254 8.859 26.3547 8 25.2744 8C24.1989 8 23.3269 8.859 23.3269 9.91533C23.3266 10.9746 24.1985 11.8343 25.2744 11.8343ZM25.2996 13.2543C24.2033 13.2543 23.3107 15.8176 23.3107 18.9786C23.3107 22.1406 24.2033 24.702 25.2996 24.702C26.3968 24.702 27.2857 22.1403 27.2857 18.9786C27.2857 15.8176 26.3968 13.2543 25.2996 13.2543ZM16.4394 13.248C13.1725 13.248 11 15.7883 11 18.9723C11 22.1613 13.1725 24.698 16.4394 24.698C19.6979 24.698 21.868 22.1613 21.868 18.9723C21.868 15.7883 19.6979 13.248 16.4394 13.248ZM16.4394 21.9996C14.9411 21.9996 14.1119 20.488 14.1119 18.9543C14.1119 17.423 14.9411 15.9533 16.4394 15.9533C17.9322 15.9533 18.7598 17.4233 18.7598 18.9543C18.7598 20.4876 17.9322 21.9996 16.4394 21.9996Z" fill="white"/>
<defs>
<linearGradient id="paint0_linear_46_3122" x1="28.8327" y1="6.02788" x2="6.72193" y2="28.5335" gradientUnits="userSpaceOnUse">
<stop stop-color="#009E0B"/>
<stop offset="0.1205" stop-color="#04A00B"/>
<stop offset="0.2454" stop-color="#11A40A"/>
<stop offset="0.3724" stop-color="#25AC09"/>
<stop offset="0.5008" stop-color="#43B708"/>
<stop offset="0.6304" stop-color="#68C607"/>
<stop offset="0.761" stop-color="#96D705"/>
<stop offset="0.8898" stop-color="#CBEB02"/>
<stop offset="1" stop-color="#FFFF00"/>
</linearGradient>
</defs>
</svg>
