<svg width="66" height="40" viewBox="0 0 66 40" fill="none" xmlns="http://www.w3.org/2000/svg">
<g clip-path="url(#clip0_25_3400)">
<path d="M26.457 7.09695C28.4214 7.09695 30.0045 5.5058 30.0045 3.54508C30.0045 1.58992 28.4214 0 26.457 0C24.5012 0 22.9156 1.58992 22.9156 3.54508C22.915 5.5058 24.5006 7.09695 26.457 7.09695ZM26.5026 9.72523C24.5092 9.72523 22.886 14.4697 22.886 20.3204C22.886 26.1729 24.5092 30.9137 26.5026 30.9137C28.4979 30.9137 30.1143 26.1723 30.1143 20.3204C30.1143 14.4697 28.4979 9.72523 26.5026 9.72523ZM10.3912 9.7135C4.45043 9.7135 0.5 14.4154 0.5 20.3087C0.5 26.2112 4.45043 30.9063 10.3912 30.9063C16.3165 30.9063 20.2626 26.2112 20.2626 20.3087C20.2626 14.4154 16.3165 9.7135 10.3912 9.7135ZM10.3912 25.9119C7.66667 25.9119 6.15881 23.114 6.15881 20.2753C6.15881 17.441 7.66667 14.7208 10.3912 14.7208C13.1058 14.7208 14.6106 17.4416 14.6106 20.2753C14.6106 23.1134 13.1058 25.9119 10.3912 25.9119Z" fill="white"/>
<path d="M63.6723 23.0633C63.2972 22.8092 62.8604 22.6747 62.4088 22.6747C61.6561 22.6747 60.9552 23.0479 60.5344 23.6729C59.3924 25.3689 57.4946 26.3814 55.4593 26.3814C52.0851 26.3814 49.3402 23.6273 49.3402 20.2426C49.3402 16.8573 52.0851 14.1038 55.4593 14.1038C56.2842 14.1038 57.1109 14.2759 57.8735 14.6035L52.2313 18.6101C51.4132 19.1086 51.0369 20.1605 51.3176 21.168C51.5823 22.12 52.3757 22.7148 53.39 22.7191C53.8058 22.7178 54.1784 22.6228 54.5011 22.4371L54.5079 22.4464L56.6611 20.9151L56.6648 20.92L62.8098 16.5519C62.9104 16.4927 63.0066 16.4223 63.0979 16.3477L63.2941 16.2064L63.2824 16.1823C63.3077 16.1552 63.3348 16.1256 63.3651 16.091L63.4132 16.0324C64.119 15.1711 64.0882 13.8989 63.3416 13.0741C61.3272 10.8474 58.4546 9.57031 55.4593 9.57031C49.5925 9.57031 44.8203 14.3573 44.8203 20.242C44.8203 26.1266 49.5932 30.9136 55.4593 30.9136C58.9988 30.9136 62.2965 29.1553 64.2806 26.2099C64.9772 25.174 64.7045 23.763 63.6723 23.0633Z" fill="#01D318"/>
<path d="M43.0702 31.3625C43.0702 31.3625 34.5357 31.3625 34.4246 31.3625C32.0431 31.3625 30.1133 33.2974 30.1133 35.677C30.1133 38.0634 32.0425 40.0001 34.4246 40.0001C34.5351 40.0001 43.0702 40.0001 43.0702 40.0001C45.451 40.0001 47.3889 38.0628 47.3889 35.6813C47.3889 33.2998 45.4517 31.3625 43.0702 31.3625Z" fill="white"/>
<path d="M43.0731 39.9998C45.4626 39.9998 47.3894 38.0632 47.3894 35.6767C47.3894 33.2971 45.4626 31.3623 43.0731 31.3623C40.6916 31.3623 38.7617 33.2971 38.7617 35.6767C38.7617 38.0632 40.6916 39.9998 43.0731 39.9998Z" fill="#01D318"/>
</g>
<defs>
<clipPath id="clip0_25_3400">
<rect width="65" height="40" fill="white" transform="translate(0.5)"/>
</clipPath>
</defs>
</svg>
