<svg width="47" height="47" viewBox="0 0 47 47" fill="none" xmlns="http://www.w3.org/2000/svg">
<path d="M44.7403 27.3871C44.7403 34.0818 35.9825 42.3583 24.5499 42.3583C12.044 42.3583 1.80762 35.0716 1.80762 22.9846C1.80762 14.702 7.40628 4.97116 18.051 4.97116C27.5284 4.97116 31.0457 11.6294 35.6607 14.6868C40.7857 18.0767 44.7403 21.1068 44.7403 27.3871Z" fill="url(#paint0_linear)"/>
<mask id="mask0" mask-type="alpha" maskUnits="userSpaceOnUse" x="1" y="4" width="44" height="39">
<path d="M44.7403 27.3871C44.7403 34.0818 35.9825 42.3583 24.5499 42.3583C12.044 42.3583 1.80762 35.0716 1.80762 22.9846C1.80762 14.702 7.40628 4.97116 18.051 4.97116C27.5284 4.97116 31.0457 11.6294 35.6607 14.6868C40.7857 18.0767 44.7403 21.1068 44.7403 27.3871Z" fill="white"/>
</mask>
<g mask="url(#mask0)">
<path fill-rule="evenodd" clip-rule="evenodd" d="M28.7203 18.6948C28.4511 19.3393 27.8199 19.7582 27.1214 19.7557C26.1699 19.7524 25.4006 18.9796 25.4014 18.0281C25.4021 17.3296 25.8236 16.7003 26.4694 16.434C27.1152 16.1677 27.8578 16.3168 28.3507 16.8118C28.8435 17.3069 28.9894 18.0502 28.7203 18.6948ZM25.3847 26.1954C25.3847 23.3414 26.1741 21.0339 27.1442 21.0339C28.1142 21.0339 28.9006 23.349 28.9006 26.1954C28.9006 29.0418 28.1142 31.3477 27.1442 31.3477C26.1741 31.3477 25.3847 29.0494 25.3847 26.1954ZM19.3079 21.0339C16.4236 21.0339 14.4956 23.3201 14.4956 26.1953C14.4956 29.0706 16.4175 31.3492 19.3079 31.3492C22.1983 31.3492 24.1081 29.0721 24.1081 26.1953C24.1081 23.3186 22.1892 21.0293 19.3079 21.0293V21.0339ZM17.2494 26.1711C17.2494 27.5465 17.9826 28.9127 19.3079 28.9127V28.9082C20.6271 28.9082 21.3603 27.5495 21.3603 26.1711C21.3603 24.7927 20.6332 23.4689 19.3079 23.4689C17.9826 23.4689 17.2494 24.7957 17.2494 26.1711Z" fill="white"/>
</g>
<defs>
<linearGradient id="paint0_linear" x1="23.5279" y1="48.8444" x2="45.1676" y2="20.309" gradientUnits="userSpaceOnUse">
<stop stop-color="#FFF100"/>
<stop offset="0.07" stop-color="#D7E410"/>
<stop offset="0.18" stop-color="#A7D424"/>
<stop offset="0.27" stop-color="#81C734"/>
<stop offset="0.36" stop-color="#66BE3F"/>
<stop offset="0.44" stop-color="#56B946"/>
<stop offset="0.5" stop-color="#50B748"/>
<stop offset="1" stop-color="#50B748"/>
</linearGradient>
</defs>
</svg>
